<?xml version="1.0" encoding="UTF-8" standalone="no"?>
<!-- Created with Inkscape (http://www.inkscape.org/) -->

<svg
   xmlns:dc="http://purl.org/dc/elements/1.1/"
   xmlns:cc="http://creativecommons.org/ns#"
   xmlns:rdf="http://www.w3.org/1999/02/22-rdf-syntax-ns#"
   xmlns:svg="http://www.w3.org/2000/svg"
   xmlns="http://www.w3.org/2000/svg"
   xmlns:xlink="http://www.w3.org/1999/xlink"
   xmlns:sodipodi="http://sodipodi.sourceforge.net/DTD/sodipodi-0.dtd"
   xmlns:inkscape="http://www.inkscape.org/namespaces/inkscape"
   version="1.0"
   width="1927.4167"
   height="502.0531"
   id="svg1936"
   inkscape:version="0.91 r13725"
   sodipodi:docname="Amazon Instant Video.svg">
  <metadata
     id="metadata6866">
    <rdf:RDF>
      <cc:Work
         rdf:about="">
        <dc:format>image/svg+xml</dc:format>
        <dc:type
           rdf:resource="http://purl.org/dc/dcmitype/StillImage" />
        <dc:title></dc:title>
      </cc:Work>
    </rdf:RDF>
  </metadata>
  <sodipodi:namedview
     pagecolor="#ffffff"
     bordercolor="#666666"
     borderopacity="1"
     objecttolerance="10"
     gridtolerance="10"
     guidetolerance="10"
     inkscape:pageopacity="0"
     inkscape:pageshadow="2"
     inkscape:window-width="1366"
     inkscape:window-height="705"
     id="namedview6864"
     showgrid="false"
     inkscape:zoom="0.42498549"
     inkscape:cx="696.94705"
     inkscape:cy="123.30245"
     inkscape:window-x="-8"
     inkscape:window-y="-8"
     inkscape:window-maximized="1"
     inkscape:current-layer="g1967"
     fit-margin-top="0"
     fit-margin-left="0"
     fit-margin-right="0"
     fit-margin-bottom="0" />
  <defs
     id="defs1938">
    <linearGradient
       id="linearGradient6926"
       inkscape:collect="always">
      <stop
         id="stop6928"
         offset="0"
         style="stop-color:#ffffff;stop-opacity:1" />
      <stop
         id="stop6930"
         offset="1"
         style="stop-color:#97ba4e;stop-opacity:1" />
    </linearGradient>
    <linearGradient
       inkscape:collect="always"
       xlink:href="#linearGradient6926"
       id="linearGradient6924"
       gradientUnits="userSpaceOnUse"
       gradientTransform="matrix(2.459632,0,0,2.5584219,266.86034,-1590.8749)"
       x1="334.24564"
       y1="627.73462"
       x2="332.89273"
       y2="661.22699" />
  </defs>
  <g
     transform="matrix(2.459632,0,0,2.5584219,355.50129,-1624.9585)"
     id="layer1">
    <g
       transform="translate(7.081691,7.081144)"
       id="g1967">
      <path
         d="m 222.02642,784.73404 c -34.99948,25.79739 -85.72909,39.56123 -129.406339,39.56123 -61.24255,0 -116.37656,-22.65135 -158.08757,-60.32496 -3.2771,-2.96252 -0.34083,-6.9999 3.59171,-4.69283 45.01431,26.19064 100.67269,41.94697 158.16623,41.94697 38.774689,0 81.429499,-8.02237 120.649899,-24.67006 5.92501,-2.51683 10.87999,3.88009 5.08607,8.17965"
         id="path8"
         style="fill:#000000;fill-opacity:1;fill-rule:evenodd;stroke:none"
         inkscape:connector-curvature="0" />
      <path
         d="m 236.57678,768.08635 c -4.45688,-5.71527 -29.57261,-2.70033 -40.84585,-1.36327 -3.43442,0.41947 -3.95874,-2.56925 -0.86517,-4.71905 20.00346,-14.07844 52.82696,-10.01483 56.65462,-5.2958 3.82764,4.74526 -0.99624,37.64741 -19.79373,53.35128 -2.88385,2.41195 -5.63662,1.12734 -4.35198,-2.07113 4.2209,-10.53917 13.68519,-34.16054 9.20211,-39.90203"
         id="path10"
         style="fill:#000000;fill-opacity:1;fill-rule:evenodd;stroke:none"
         inkscape:connector-curvature="0" />
      <path
         d="m 196.51744,662.61598 0,-13.68519 c 0,-2.07113 1.57301,-3.46062 3.46062,-3.46062 l 61.26875,0 c 1.96628,0 3.53929,1.41571 3.53929,3.46062 l 0,11.71893 c -0.0262,1.96626 -1.67788,4.53551 -4.61418,8.59912 l -31.74859,45.32893 c 11.79759,-0.28837 24.25059,1.46814 34.94706,7.49802 2.41195,1.36327 3.06737,3.35575 3.25089,5.32203 l 0,14.60278 c 0,1.99248 -2.20222,4.32576 -4.5093,3.1198 -18.84992,-9.88376 -43.887,-10.95865 -64.72939,0.10487 -2.12356,1.15354 -4.35199,-1.15354 -4.35199,-3.14602 l 0,-13.86871 c 0,-2.22843 0.0262,-6.02989 2.25463,-9.41186 l 36.78224,-52.74829 -32.01076,0 c -1.96626,0 -3.53927,-1.38948 -3.53927,-3.43441"
         id="path12"
         style="fill:#000000;fill-rule:evenodd;stroke:none"
         inkscape:connector-curvature="0" />
      <path
         d="m -26.981169,748.00424 -18.64017,0 c -1.78273,-0.13107 -3.19845,-1.46813 -3.32954,-3.17224 l 0,-95.66524 c 0,-1.91383 1.59923,-3.43442 3.59171,-3.43442 l 17.38176,0 c 1.80898,0.0786 3.25089,1.46814 3.38199,3.19845 l 0,12.50545 0.34082,0 c 4.53551,-12.08598 13.05597,-17.7226 24.53896043,-17.7226 11.66648957,0 18.95476957,5.63662 24.19813957,17.7226 4.5093,-12.08598 14.76008,-17.7226 25.74495,-17.7226 7.81262,0 16.35931,3.22467 21.57646,10.46052 5.89879,8.04857 4.69281,19.74128 4.69281,29.99208 l -0.02621,60.37739 c 0,1.91383 -1.59923,3.46061 -3.59171,3.46061 l -18.61397,0 c -1.86138,-0.13107 -3.35574,-1.62543 -3.35574,-3.46061 l 0,-50.70338 c 0,-4.03739 0.36702,-14.10466 -0.52434,-17.93233 -1.38949,-6.42311 -5.55797,-8.23209 -10.95865,-8.23209 -4.5093,0 -9.22833,3.01494 -11.14216,7.83885 -1.91383,4.8239 -1.73031,12.89867 -1.73031,18.32557 l 0,50.70338 c 0,1.91383 -1.59923,3.46061 -3.59171,3.46061 l -18.6139496,0 c -1.88761,-0.13107 -3.35575997,-1.62543 -3.35575997,-3.46061 l -0.02621,-50.70338 c 0,-10.67025 1.75650997,-26.37415 -11.48298043,-26.37415 -13.39682,0 -12.87248,15.31063 -12.87248,26.37415 l 0,50.70338 c 0,1.91383 -1.59923,3.46061 -3.59171,3.46061"
         id="path14"
         style="fill:#000000;fill-rule:evenodd;stroke:none"
         inkscape:connector-curvature="0" />
      <path
         d="m 432.37467,748.00424 -18.56152,0 c -1.86141,-0.13107 -3.35577,-1.62543 -3.35577,-3.46061 l -0.0262,-95.69149 c 0.1573,-1.75653 1.7041,-3.1198 3.59171,-3.1198 l 17.27691,0 c 1.62543,0.0786 2.96249,1.17976 3.32954,2.67412 l 0,14.62899 0.3408,0 c 5.21717,-13.0822 12.53165,-19.32181 25.40412,-19.32181 8.36317,0 16.51662,3.01494 21.75999,11.27324 4.87633,7.65532 4.87633,20.5278 4.87633,29.78233 l 0,60.22011 c -0.20973,1.67786 -1.75653,3.01492 -3.59169,3.01492 l -18.69262,0 c -1.70411,-0.13107 -3.11982,-1.38948 -3.30332,-3.01492 l 0,-51.96179 c 0,-10.46052 1.20597,-25.77117 -11.66651,-25.77117 -4.5355,0 -8.70399,3.04117 -10.77512,7.65532 -2.62167,5.84637 -2.96249,11.66651 -2.96249,18.11585 l 0,51.5161 c -0.0262,1.91383 -1.65166,3.46061 -3.64414,3.46061"
         id="path18"
         style="fill:#000000;fill-rule:evenodd;stroke:none"
         inkscape:connector-curvature="0" />
      <path
         d="m 147.67545,702.30829 c 0,7.26206 0.18352,13.31815 -3.48684,19.7675 -2.9625,5.24338 -7.68153,8.46805 -12.89868,8.46805 -7.1572,0 -11.35189,-5.45312 -11.35189,-13.50169 0,-15.8874 14.23574,-18.77125 27.73741,-18.77125 l 0,4.03739 m 18.79748,45.43378 c -1.23218,1.10111 -3.01494,1.17976 -4.40443,0.4457 -6.18718,-5.1385 -7.3145,-7.52423 -10.69647,-12.42678 -10.22457,10.4343 -17.48665,13.55409 -30.72615,13.55409 -15.70389,0 -27.894719,-9.67401 -27.894719,-29.04824 0,-15.12713 8.179669,-25.43035 19.872379,-30.46398 10.1197,-4.45688 24.25056,-5.24337 35.05191,-6.47556 l 0,-2.41195 c 0,-4.43066 0.34082,-9.67403 -2.28086,-13.50167 -2.25465,-3.43442 -6.60666,-4.85013 -10.46052,-4.85013 -7.10478,0 -13.42302,3.64414 -14.96983,11.19459 -0.3146,1.67789 -1.54678,3.32955 -3.25089,3.4082 l -18.063399,-1.94006 c -1.52058,-0.3408 -3.22467,-1.57301 -2.77898,-3.90629 4.142259,-21.91728 23.962199,-28.52394 41.684769,-28.52394 9.07104,0 20.92105,2.41195 28.07825,9.28076 9.07102,8.46804 8.20587,19.7675 8.20587,32.06321 l 0,29.04826 c 0,8.73022 3.61792,12.55786 7.02611,17.27691 1.17977,1.67786 1.44194,3.69656 -0.0787,4.95497 -3.80144,3.17225 -10.56539,9.07104 -14.28818,12.37436 l -0.0262,-0.0525"
         id="path28"
         style="fill:#000000;fill-rule:evenodd;stroke:none"
         inkscape:connector-curvature="0" />
      <path
         d="m -96.691739,702.30829 c 0,7.26206 0.1835,13.31815 -3.486841,19.7675 -2.96252,5.24338 -7.65533,8.46805 -12.8987,8.46805 -7.1572,0 -11.32567,-5.45312 -11.32567,-13.50169 0,-15.8874 14.23574,-18.77125 27.711211,-18.77125 l 0,4.03739 m 18.79747,45.43378 c -1.23219,1.10111 -3.01495,1.17976 -4.40444,0.4457 -6.18716,-5.1385 -7.28828,-7.52423 -10.69647,-12.42678 -10.224571,10.4343 -17.460401,13.55409 -30.726141,13.55409 -15.67768,0 -27.89471,-9.67401 -27.89471,-29.04824 0,-15.12713 8.20587,-25.43035 19.87236,-30.46398 10.1197,-4.45688 24.25058,-5.24337 35.051931,-6.47556 l 0,-2.41195 c 0,-4.43066 0.34082,-9.67403 -2.25465,-13.50167 -2.280881,-3.43442 -6.632861,-4.85013 -10.460531,-4.85013 -7.10475,0 -13.44924,3.64414 -14.99603,11.19459 -0.31461,1.67789 -1.5468,3.32955 -3.22467,3.4082 l -18.08962,-1.94006 c -1.52058,-0.3408 -3.19846,-1.57301 -2.77899,-3.90629 4.16848,-21.91728 23.96219,-28.52394 41.68479,-28.52394 9.071011,0 20.921021,2.41195 28.078221,9.28076 9.07104,8.46804 8.20587,19.7675 8.20587,32.06321 l 0,29.04826 c 0,8.73022 3.61794,12.55786 7.02613,17.27691 1.20597,1.67786 1.46814,3.69656 -0.05244,4.95497 -3.80144,3.17225 -10.56538,9.07104 -14.28819,12.37436 l -0.05242,-0.0525"
         id="path30"
         style="fill:#000000;fill-rule:evenodd;stroke:none"
         inkscape:connector-curvature="0" />
      <ellipse
         style="fill:#7dae2a;fill-opacity:1;stroke:none;stroke-opacity:1"
         id="path6903"
         cx="334.58389"
         cy="692.93097"
         rx="67.645782"
         ry="64.871155" />
      <path
         style="fill:url(#linearGradient6924);fill-opacity:1;stroke:none;stroke-width:2.50854063;stroke-opacity:1"
         d="m 1090.2305,28.443359 a 150.15883,153.9067 0 0 0 -138.918,95.687501 c 0.25011,-0.10232 0.49162,-0.21877 0.74219,-0.32031 3.48605,-1.41278 7.01674,-2.75029 10.58593,-4.01563 7.1384,-2.53068 14.43403,-4.77125 21.85352,-6.74219 7.4195,-1.97093 14.96179,-3.67188 22.59376,-5.12304 7.6319,-1.45117 15.3531,-2.65362 23.1289,-3.625 7.7758,-0.97139 15.606,-1.71255 23.457,-2.24414 7.851,-0.5316 15.7226,-0.85259 23.5801,-0.98438 7.8575,-0.13179 15.7006,-0.0737 23.4961,0.1543 7.7955,0.22803 15.5442,0.62597 23.209,1.17383 7.6647,0.54785 15.2455,1.24456 22.7109,2.07226 7.4654,0.8277 14.8143,1.78597 22.0117,2.85352 7.1975,1.06755 14.2447,2.2443 21.1055,3.51172 6.8608,1.26741 13.5366,2.62544 19.9922,4.05273 5.908,1.30622 11.5744,2.68374 17.0879,4.0918 A 150.15883,153.9067 0 0 0 1090.2305,28.443359 Z"
         id="ellipse6905"
         transform="matrix(0.40656488,0,0,0.39086595,-108.49604,621.81884)"
         inkscape:connector-curvature="0" />
      <path
         style="fill:#ffffff;fill-rule:evenodd;stroke:none;stroke-width:0.39863813px;stroke-linecap:butt;stroke-linejoin:miter;stroke-opacity:1"
         d="m 313.95191,718.13151 0,-53.00249 55.80779,26.66383 z"
         id="path7472"
         inkscape:connector-curvature="0"
         sodipodi:nodetypes="cccc" />
      <path
         style="font-style:normal;font-weight:normal;font-size:67.99806213px;line-height:125%;font-family:sans-serif;letter-spacing:-0.38137686px;word-spacing:0px;fill:#000000;fill-opacity:1;stroke:none;stroke-width:1px;stroke-linecap:butt;stroke-linejoin:miter;stroke-opacity:1"
         d="m 1626.2285,369.92969 0,47.35156 -0.3223,1.26563 c -3.3806,-5.42203 -9.8193,-16.08594 -25.1132,-16.08594 -22.3775,0 -35.0957,20.604 -35.0957,47.17187 0,22.59173 8.3713,52.77539 37.0273,52.77539 8.2104,0 17.8688,-2.8925 23.9863,-15.72461 l 0.3223,0 0,13.01368 13.3633,0 0,-129.76758 -14.168,0 z m -675.01952,3.38476 a 9.4120866,9.117958 0 0 0 -9.4121,9.11719 9.4120866,9.117958 0 0 0 9.4121,9.11914 9.4120866,9.117958 0 0 0 9.41211,-9.11914 9.4120866,9.117958 0 0 0 -9.41211,-9.11719 z m 591.79882,0 a 9.4120866,9.117958 0 0 0 -9.4121,9.11719 9.4120866,9.117958 0 0 0 9.4121,9.11914 9.4120866,9.117958 0 0 0 9.4121,-9.11914 9.4120866,9.117958 0 0 0 -9.4121,-9.11719 z m -392.4551,5.47071 0,26.38672 -11.4297,0 0,13.19335 11.4297,0 0,62.35352 c 0,11.38623 3.0604,20.24219 17.0664,20.24219 1.4489,0 5.4734,-0.72147 10.625,-1.26367 l 0,-12.47071 -4.9902,0 c -2.8978,0 -8.5332,-7e-5 -8.5332,-7.41015 l 0,-61.45118 13.5234,0 0,-13.19335 -13.5234,0 0,-26.38672 -14.168,0 z m 221.168,0 0,26.38672 -11.4316,0 0,13.19335 11.4316,0 0,62.35352 c 0,11.38623 3.0584,20.24219 17.0645,20.24219 1.4489,0 5.4733,-0.72147 10.625,-1.26367 l 0,-12.47071 -4.9903,0 c -2.8978,0 -8.5332,-7e-5 -8.5332,-7.41015 l 0,-61.45118 13.5235,0 0,-13.19335 -13.5235,0 0,-26.38672 -14.166,0 z m -353.5684,23.67578 c -14.489,0 -22.37671,11.02538 -25.4355,16.08594 l -0.32227,0 0,-13.375 -13.36133,0 0,94.52539 14.16602,0 0,-51.50977 c 0,-25.66421 14.16738,-31.44727 22.21678,-31.44727 13.8451,0 18.0313,8.31299 18.0313,24.75977 l 0,58.19727 14.166,0 0,-64.3418 c 0,-26.92934 -16.4209,-32.89453 -29.461,-32.89453 z m 78.8907,0 c -16.5819,0 -31.877,9.3992 -31.877,30.18359 0,13.01284 7.7283,19.69992 19.4805,22.95313 l 16.4199,4.51757 c 12.0742,3.43395 16.7441,5.96387 16.7441,13.55469 0,10.48256 -9.176,15.00196 -19.3183,15.00196 -19.9626,0 -21.896,-11.92781 -22.3789,-19.3379 l -13.6836,0 c 0.483,11.38624 2.8979,33.07422 36.2226,33.07422 18.9967,0 33.3243,-11.74831 33.3243,-31.26758 0,-12.8321 -6.1163,-20.06159 -23.6641,-24.9414 l -14.168,-3.97656 c -10.9472,-3.07248 -15.2949,-4.87884 -15.2949,-12.65039 0,-11.7477 12.3975,-13.375 16.7442,-13.375 17.8696,0 19.8019,9.94008 19.9628,15.90429 l 13.6836,0 c 0,-4.69908 -2.0923,-29.64062 -32.1972,-29.64062 z m 128.3281,0 c -20.7676,0 -34.1295,8.85749 -34.7734,31.44922 l 13.039,0 c 0.966,-7.22936 3.2195,-18.25586 19.3184,-18.25586 13.3621,0 19.8027,5.42292 19.8027,15.36328 0,9.39816 -4.0255,10.84361 -7.4062,11.20508 l -23.3438,3.2539 c -23.5044,3.25321 -25.5957,21.68834 -25.5957,29.64063 0,16.26604 10.9474,27.29101 26.4024,27.29101 16.4208,0 24.9521,-8.67613 30.4257,-15.36328 0.483,7.22936 2.4156,14.45899 14.9727,14.45899 3.2198,0 5.3117,-1.08371 7.7266,-1.80664 l 0,-11.56836 c -1.6099,0.36146 -3.3801,0.72265 -4.668,0.72265 -2.8978,0 -4.668,-1.62542 -4.668,-5.60156 l 0,-54.40039 c 0,-24.21834 -24.4709,-26.38867 -31.2324,-26.38867 z m 93.5391,0 c -14.489,0 -22.3768,11.02538 -25.4356,16.08594 l -0.3223,0 0,-13.375 -13.3613,0 0,94.52539 14.166,0 0,-51.50977 c 0,-25.66421 14.1674,-31.44727 22.2168,-31.44727 13.8451,0 18.0313,8.31299 18.0313,24.75977 l 0,58.19727 14.166,0 0,-64.3418 c 0,-26.92934 -16.4208,-32.89453 -29.4609,-32.89453 z m 376.7089,0 c -27.851,0 -40.4082,23.31487 -40.4082,52.59375 0,27.29081 14.0065,47.35351 37.6719,47.35351 13.5231,0 18.9976,-3.61607 22.8613,-6.50781 10.6253,-7.95229 14.4878,-21.3254 14.9707,-25.84375 l -14.166,0 c -0.4829,7.04862 -8.3723,18.61524 -21.7343,18.61524 -16.2599,0 -24.4688,-11.38595 -24.4688,-31.08594 l 61.4961,0 c 0,-33.43576 -11.9133,-55.125 -36.2227,-55.125 z m 86.6172,0 c -26.8851,0 -39.1191,25.48374 -39.1191,49.88281 0,24.39907 12.234,49.88281 39.1191,49.88281 26.8852,0 39.1211,-25.48374 39.1211,-49.88281 0,-24.39907 -12.2359,-49.88281 -39.1211,-49.88281 z m -837.82419,2.71094 0,94.52539 14.16601,0 0,-94.52539 -14.16601,0 z m 502.40429,0 30.7481,94.52539 15.1347,0 32.0352,-94.52539 -15.4551,0 -23.8262,76.99414 -0.3203,0 -21.8945,-76.99414 -16.4219,0 z m 89.0898,0 0,94.52539 14.168,0 0,-94.52539 -14.168,0 z m 246.3301,11.02539 c 20.2846,0 24.4707,23.49511 24.4707,36.14648 0,12.65137 -4.1861,36.14648 -24.4707,36.14648 -20.2846,0 -24.4687,-23.49511 -24.4687,-36.14648 0,-12.65137 4.1841,-36.14648 24.4687,-36.14648 z m -178.8672,0.54296 c 20.4456,0 22.6993,24.76067 22.6993,40.12305 0,25.12201 -14.0061,31.8086 -23.0215,31.8086 -15.455,0 -22.6992,-15.72343 -22.6992,-36.50782 0,-12.10916 1.127,-35.42383 23.0214,-35.42383 z m 90.3184,0 c 17.2258,0 22.7009,13.55392 23.5059,28.19336 l -46.8477,0 c 0,-14.63944 10.3017,-28.19336 23.3418,-28.19336 z m -451.252,34.70118 0,15.54297 c 0,12.65136 -12.8789,22.22851 -26.08,22.22851 -10.6253,0 -15.295,-6.14348 -15.295,-16.44531 0,-11.92844 11.1088,-14.27888 18.0313,-15.36328 17.5478,-2.53028 21.0899,-3.97482 23.3437,-5.96289 z"
         transform="matrix(0.40656488,0,0,0.39086595,-108.49604,621.81884)"
         id="text3364"
         inkscape:connector-curvature="0" />
    </g>
  </g>
</svg>
