<svg xmlns="http://www.w3.org/2000/svg" viewBox="0 0 54 54"><defs><style>.cls-1{isolation:isolate;}.cls-2{fill:#ed1c24;}.cls-3{mix-blend-mode:multiply;}.cls-4{fill:#414042;}</style></defs><title>IDWE-Category</title><g class="cls-1"><g id="Layer_1" data-name="Layer 1"><rect class="cls-2" width="54" height="54"/><g class="cls-3"><path class="cls-4" d="M35.19,16.12a.31.31,0,1,0-.62-.06.31.31,0,1,0,.62.06"/><path class="cls-4" d="M33,19.09a.31.31,0,0,0,.4.49.32.32,0,0,0,0-.44.31.31,0,0,0-.44,0"/><path class="cls-4" d="M36.54,16.84a.31.31,0,1,0-.62-.06.31.31,0,1,0,.62.06"/><path class="cls-4" d="M35.75,19.36a.31.31,0,1,0,.44,0,.31.31,0,0,0-.44,0"/><path class="cls-4" d="M33.73,16.55a.31.31,0,1,0-.62-.06.31.31,0,1,0,.62.06"/><path class="cls-4" d="M34.18,20a.31.31,0,1,0,.62.06.31.31,0,1,0-.62-.06"/><path class="cls-4" d="M36.33,18.23a.31.31,0,1,0,.62.06.31.31,0,1,0-.62-.06"/><path class="cls-4" d="M32,24.39a8.06,8.06,0,0,1,1.59,3,.67.67,0,0,1-.46.83l-.18,0a.67.67,0,0,1-.64-.49A6.72,6.72,0,0,0,31,25.25a.67.67,0,1,1,1-.86m1.89,4.81c0,.14,0,.27,0,.41s0,.36,0,.54a.67.67,0,0,1-.67.63h0a.67.67,0,0,1-.62-.72c0-.15,0-.3,0-.45s0-.23,0-.34a.67.67,0,1,1,1.34-.07M31.7,17.8A5,5,0,0,0,30,19.74L28.48,19a.8.8,0,0,0-1.08.35l-.77,1.5a8.73,8.73,0,1,0,5.71,3l.78-1.51a.81.81,0,0,0-.34-1.09l-1.63-.84-.22-.11a3.94,3.94,0,0,1,1.34-1.52,3.89,3.89,0,0,1,2.84-.07l.37-1a4.9,4.9,0,0,0-3.77.16"/></g></g></g></svg>