<svg xmlns="http://www.w3.org/2000/svg" viewBox="0 0 54 54"><defs><style>.cls-1{isolation:isolate;}.cls-2{fill:#956daf;}.cls-3{mix-blend-mode:multiply;}.cls-4{fill:#414042;}</style></defs><title>IDWE-Category</title><g class="cls-1"><g id="Layer_1" data-name="Layer 1"><rect class="cls-2" width="54" height="54"/><g class="cls-3"><path class="cls-4" d="M37.71,33.38V18.54H36.58c-4.6,0-7,.75-9,2.25V35.63c2-1.51,4.41-2.25,9-2.25Z"/><path class="cls-4" d="M15.17,34.5V20.79L14,21.92V35.49h3.38c3.45,0,5.66.42,7.4,1.27h1.61c-2.09-2-6.76-2.25-10.14-2.25Z"/><path class="cls-4" d="M16.29,18.54V33.38h1.13c4.6,0,7,.75,9,2.25V20.79c-2-1.51-4.41-2.25-9-2.25Z"/><path class="cls-4" d="M38.83,20.79V34.5H37.71c-3.38,0-8.05.28-10.14,2.25h1.61c1.74-.85,4-1.27,7.4-1.27H40V21.92Z"/></g></g></g></svg>