<svg xmlns="http://www.w3.org/2000/svg" viewBox="0 0 54 54"><defs><style>.cls-1{isolation:isolate;}.cls-2{fill:#e2641f;}.cls-3{mix-blend-mode:multiply;}.cls-4{fill:#414042;}</style></defs><title>IDWE-Category</title><g class="cls-1"><g id="Layer_1" data-name="Layer 1"><rect class="cls-2" width="54" height="54"/><g class="cls-3"><path class="cls-4" d="M28.36,28.37a1.9,1.9,0,0,1-2.72,0,2,2,0,0,1,0-2.75,1.9,1.9,0,0,1,2.72,0,2,2,0,0,1,0,2.75m6-8.79,0,0,0,0L27.9,23.23a3.79,3.79,0,0,0-3.62,1,3.91,3.91,0,0,0-1,3.67l-3.67,6.5,0,0,0,0,6.41-3.71a3.79,3.79,0,0,0,3.62-1,3.92,3.92,0,0,0,1-3.67Z"/><path class="cls-4" d="M27.91,39.87V38a11,11,0,0,0,10-10.1H39.7A12.83,12.83,0,0,1,27.91,39.87"/><path class="cls-4" d="M14.3,27.92h1.82a11,11,0,0,0,10,10.1v1.84A12.83,12.83,0,0,1,14.3,27.92"/><path class="cls-4" d="M26.09,14.13V16a11,11,0,0,0-10,10.1H14.3A12.83,12.83,0,0,1,26.09,14.13"/><path class="cls-4" d="M39.7,26.08H37.88a11,11,0,0,0-10-10.1V14.13A12.83,12.83,0,0,1,39.7,26.08"/></g></g></g></svg>