<svg xmlns="http://www.w3.org/2000/svg" viewBox="0 0 54 54"><defs><style>.cls-1{isolation:isolate;}.cls-2{fill:#5fbdbc;}.cls-3{mix-blend-mode:multiply;}.cls-4{fill:#414042;}</style></defs><title>IDWE-Category</title><g class="cls-1"><g id="Layer_1" data-name="Layer 1"><rect class="cls-2" width="54" height="54"/><g class="cls-3"><path class="cls-4" d="M33.54,24.87a8.17,8.17,0,0,0-3.9.91,4.24,4.24,0,0,1,2.54,3.85V37.1h7.64V29.47c0-2.83-2.8-4.59-6.27-4.59"/><path class="cls-4" d="M25.54,25.86A6.41,6.41,0,0,0,21,27.46a3.42,3.42,0,0,1,2.63,3.23V37.1h7.53V30c0-2.53-2.5-4.1-5.6-4.1"/><path class="cls-4" d="M18.33,28c-2.3,0-4.15,1.17-4.15,3V37.1h8.3V31c0-1.87-1.85-3-4.15-3"/><path class="cls-4" d="M18.33,22.53a2.28,2.28,0,1,0,2.28,2.28,2.28,2.28,0,0,0-2.28-2.28"/><path class="cls-4" d="M25.49,18.93a3,3,0,1,0,3,3,3,3,0,0,0-3-3"/><path class="cls-4" d="M33.71,16.73a3.43,3.43,0,1,0,3.43,3.43,3.43,3.43,0,0,0-3.43-3.43"/></g></g></g></svg>