<svg xmlns="http://www.w3.org/2000/svg" viewBox="0 0 54 54"><defs><style>.cls-1{isolation:isolate;}.cls-2{fill:#d18234;}.cls-3{mix-blend-mode:multiply;}.cls-4{fill:#414042;}</style></defs><title>IDWE-Category</title><g class="cls-1"><g id="Layer_1" data-name="Layer 1"><rect class="cls-2" width="54" height="54"/><g class="cls-3"><path class="cls-4" d="M17,27.15c1-7.71,6.9-8.53,7.72-8.61v-2a.8.8,0,0,1,1.3-.63l5.51,4.27a.8.8,0,0,1,0,1.26l-5.51,4.28h0a.81.81,0,0,1-1.3-.63V23.18c-2.89.06-4.79,2.5-5.88,4.54a1,1,0,0,1-1.16.47A1,1,0,0,1,17,27.15ZM37,26.86a1,1,0,0,0-.68-1,1,1,0,0,0-1.16.47c-1.09,2-3,4.48-5.88,4.54v-2a.81.81,0,0,0-1.3-.63l-5.51,4.28a.8.8,0,0,0,0,1.26l5.51,4.28a.81.81,0,0,0,.85.09.8.8,0,0,0,.45-.72v-2C30.05,35.39,36,34.57,37,26.86Z"/></g></g></g></svg>