<svg xmlns="http://www.w3.org/2000/svg" viewBox="0 0 54 54"><defs><style>.cls-1{isolation:isolate;}.cls-2{fill:#abd039;}.cls-3{mix-blend-mode:multiply;}.cls-4{fill:#414042;}</style></defs><title>IDWE-Category</title><g class="cls-1"><g id="Layer_1" data-name="Layer 1"><rect class="cls-2" width="54" height="54"/><g class="cls-3"><path class="cls-4" d="M34,28.34a7.14,7.14,0,0,1-14.1,0,.51.51,0,0,1,.52-.57H33.53a.51.51,0,0,1,.52.57m-13.53-5.6a.52.52,0,0,1,.47-.93l3.51,1.78a.52.52,0,0,1,.29.47.52.52,0,0,1-.29.46L21,26.29a.51.51,0,0,1-.23.06.52.52,0,0,1-.24-1l2.59-1.31Zm8.89.85,3.51-1.78a.52.52,0,0,1,.73.63.52.52,0,0,1-.26.3L30.8,24.05l2.59,1.31a.52.52,0,0,1,.26.3.53.53,0,0,1,0,.4.52.52,0,0,1-.7.23l-3.51-1.78a.51.51,0,0,1-.29-.46.52.52,0,0,1,.29-.47M27,16.2A10.8,10.8,0,1,0,37.8,27,10.79,10.79,0,0,0,27,16.2"/><path class="cls-4" d="M23.07,32.31a6.47,6.47,0,0,0,7.86,0,6.78,6.78,0,0,0-7.86,0"/></g></g></g></svg>