<svg xmlns="http://www.w3.org/2000/svg" viewBox="0 0 54 54"><defs><style>.cls-1{isolation:isolate;}.cls-2{fill:#b998a9;}.cls-3{mix-blend-mode:multiply;}.cls-4{fill:#414042;}</style></defs><title>IDWE-Category</title><g class="cls-1"><g id="Layer_1" data-name="Layer 1"><rect class="cls-2" width="54" height="54"/><g class="cls-3"><path class="cls-4" d="M27,28.55l-.13,0L16,25.48v8.83a21.77,21.77,0,0,1,4.4.64,18.16,18.16,0,0,1,6.54,3h.2a18.16,18.16,0,0,1,6.54-3,21.77,21.77,0,0,1,4.4-.64V25.47L27.13,28.53Z"/><path class="cls-4" d="M43,27.71V23.13l1.36-.38L27,17.9,9.69,22.75,27,27.59l14.72-4.12H42V27.7A1.32,1.32,0,0,0,41.09,29v2.89h2.78V29A1.31,1.31,0,0,0,43,27.71Z"/></g></g></g></svg>