<svg xmlns="http://www.w3.org/2000/svg" viewBox="0 0 54 54"><defs><style>.cls-1{isolation:isolate;}.cls-2{fill:#00b1b7;}.cls-3{mix-blend-mode:multiply;}.cls-4{fill:#414042;}</style></defs><title>IDWE-Category</title><g class="cls-1"><g id="Layer_1" data-name="Layer 1"><rect class="cls-2" width="54" height="54"/><g class="cls-3"><path class="cls-4" d="M27,33.92a5.47,5.47,0,1,1,5.47-5.47A5.47,5.47,0,0,1,27,33.92m0-13.15c-8.19,0-13,7.68-13,7.68s4.77,7.68,13,7.68,13-7.68,13-7.68-4.77-7.68-13-7.68"/><path class="cls-4" d="M26.92,31.9a3.14,3.14,0,0,1-3.38-3.15A3.32,3.32,0,0,1,27,25a3.61,3.61,0,0,1,3.63,3.74c0,.56-.17.75-.37.75a.37.37,0,0,1-.37-.37A3,3,0,0,0,27,25.76a2.69,2.69,0,0,0-2.75,3,2.37,2.37,0,0,0,2.63,2.4,1.61,1.61,0,0,0,1.15-.56,2.56,2.56,0,0,0,.55-2.06,1.58,1.58,0,0,0-1.31-1.46,1.33,1.33,0,0,0-1.47.62,1.78,1.78,0,0,0,0,1.74,1,1,0,0,0,.9.43.73.73,0,0,0,.74-.56,1,1,0,0,0-.14-.84c-.19-.07-.35-.07-.42,0a.25.25,0,0,0,0,.28.37.37,0,1,1-.65.37A1,1,0,0,1,26.33,28c.3-.42.75-.41,1.26-.21s.71.69.62,1.54a1.35,1.35,0,0,1-1.45,1.3,1.78,1.78,0,0,1-1.57-.76,2.16,2.16,0,0,1,0-2.49,2.13,2.13,0,0,1,2.27-1,2.33,2.33,0,0,1,1.92,2.13A3.21,3.21,0,0,1,28.75,31,2.36,2.36,0,0,1,26.92,31.9Z"/></g></g></g></svg>