<svg xmlns="http://www.w3.org/2000/svg" viewBox="0 0 54 54"><defs><style>.cls-1{isolation:isolate;}.cls-2{fill:#fbb040;}.cls-3{mix-blend-mode:multiply;}.cls-4{fill:#414042;}</style></defs><title>IDWE-Category</title><g class="cls-1"><g id="Layer_1" data-name="Layer 1"><rect class="cls-2" width="54" height="54"/><g class="cls-3"><path class="cls-4" d="M29.26,21.79h0a1,1,0,0,0-1,.8l-.38,2.09a6.9,6.9,0,0,0-1.11,1,7.13,7.13,0,0,1,1.63,1.76,4.91,4.91,0,0,1,3.89-1.89,4.78,4.78,0,0,1,4.86,4.7,4.62,4.62,0,0,1-1.42,3.32,5,5,0,0,1-6.13.59,7.35,7.35,0,0,1-.27,1,8,8,0,0,1-.54,1.22,7.49,7.49,0,0,0,3.52.88,7.27,7.27,0,0,0,6.91-4.81,6.92,6.92,0,0,0-2.52-7.86l-.37-2.08a1,1,0,0,0-1-.81ZM32.35,23h0a.48.48,0,0,1,.49.49V24a.49.49,0,1,1-1,0V23.5a.49.49,0,0,1,.48-.49"/><path class="cls-4" d="M18.58,24.22h0a1,1,0,0,0-1,.8l-.38,2.09A6.91,6.91,0,0,0,14.75,35a7.38,7.38,0,0,0,13.83,0,6.91,6.91,0,0,0-2.52-7.86L25.69,25a1,1,0,0,0-1-.81Zm3.07,1.17h0a.49.49,0,0,1,.49.49v.47a.49.49,0,1,1-1,0v-.47a.49.49,0,0,1,.48-.49m0,2.64h0a4.78,4.78,0,0,1,4.86,4.7,4.63,4.63,0,0,1-1.43,3.32,5,5,0,0,1-6.88,0,4.62,4.62,0,0,1-1.43-3.32A4.78,4.78,0,0,1,21.66,28"/><path class="cls-4" d="M26.22,14.22a1.71,1.71,0,0,0-1.7,1.7,1.08,1.08,0,0,0,0,.16,5.93,5.93,0,0,0-1.33.94,1.64,1.64,0,0,0-.64-.13,1.69,1.69,0,0,0-1.05,3,5.84,5.84,0,0,0-.16,1.5,1.45,1.45,0,0,0-.49.16h0a1.47,1.47,0,0,0-.73,1.27v.72h1v-.73a.49.49,0,0,1,.25-.43.48.48,0,0,1,.49,0h0a.5.5,0,0,1,.24.43h0v.71h1v-.71a1.46,1.46,0,0,0-.71-1.27,4.88,4.88,0,0,1,.08-1.32l.14,0A1.7,1.7,0,0,0,24,17.63a4.88,4.88,0,0,1,.94-.65,1.69,1.69,0,0,0,1.31.64,1.71,1.71,0,0,0,1.6-1.15,5,5,0,0,1,.85.19,1.78,1.78,0,0,0,0,.23,1.71,1.71,0,0,0,1.7,1.7,1.68,1.68,0,0,0,.76-.19,4.92,4.92,0,0,1,.4.65,1.46,1.46,0,0,0-.68,1.23V21h1v-.73a.49.49,0,0,1,.25-.42.47.47,0,0,1,.49,0h0a.5.5,0,0,1,.24.43h0V21h1v-.7A1.46,1.46,0,0,0,33,19a1.43,1.43,0,0,0-.54-.18,5.89,5.89,0,0,0-.67-1.13,1.68,1.68,0,0,0,.23-.84,1.71,1.71,0,0,0-1.7-1.7,1.69,1.69,0,0,0-1.25.56,5.74,5.74,0,0,0-1.24-.28,1.71,1.71,0,0,0-1.64-1.26Zm0,1a.73.73,0,1,1-.73.73.72.72,0,0,1,.73-.73m4.13,1a.73.73,0,1,1-.73.73.72.72,0,0,1,.73-.73m-7.78,1.7a.73.73,0,1,1-.73.73.72.72,0,0,1,.73-.73"/></g></g></g></svg>