<svg xmlns="http://www.w3.org/2000/svg" viewBox="0 0 54 54"><defs><style>.cls-1{isolation:isolate;}.cls-2{fill:#98b6e0;}.cls-3{mix-blend-mode:multiply;}.cls-4{fill:#414042;}</style></defs><title>IDWE-Category</title><g class="cls-1"><g id="Layer_1" data-name="Layer 1"><rect class="cls-2" width="54" height="54"/><g class="cls-3"><path class="cls-4" d="M19.25,28.48a.62.62,0,0,1-1-.71,2.4,2.4,0,0,1,.85-.74,2.39,2.39,0,0,1,3.08.79.62.62,0,0,1-1,.69,1.14,1.14,0,0,0-.41-.37,1.17,1.17,0,0,0-1.07,0,1.15,1.15,0,0,0-.41.36"/><path class="cls-4" d="M24.42,28.48a.62.62,0,0,1-1-.71,2.4,2.4,0,0,1,.85-.74,2.39,2.39,0,0,1,3.08.79.62.62,0,0,1-1,.69,1.14,1.14,0,0,0-.41-.37,1.16,1.16,0,0,0-1.07,0,1.12,1.12,0,0,0-.41.36"/><path class="cls-4" d="M27.31,32.49a5.54,5.54,0,0,1-4.56,2.41,5.24,5.24,0,0,1-2.51-.66,5.9,5.9,0,0,1-2-1.79.62.62,0,0,1,.51-1h8.08a.62.62,0,0,1,.62.62A.61.61,0,0,1,27.31,32.49Z"/><path class="cls-4" d="M38.94,15.23a.63.63,0,0,0-.58-.09,21.76,21.76,0,0,1-13.62,0,.64.64,0,0,0-.83.61v5A22.45,22.45,0,0,1,16,19.63a.64.64,0,0,0-.83.61v11a7.64,7.64,0,0,0,14.7,2.95,7.65,7.65,0,0,0,9.37-7.45v-11a.62.62,0,0,0-.27-.52Zm-9.75,16a6.4,6.4,0,0,1-12.81,0V21a22.91,22.91,0,0,0,12.81,0Zm5.62-2.88a.62.62,0,0,1-.86.16,4.29,4.29,0,0,0-2.43-.75,4.33,4.33,0,0,0-1.09.14V26.66a5.4,5.4,0,0,1,1.09-.11,5.51,5.51,0,0,1,3.13,1,.61.61,0,0,1,.16.86M36.12,23a2.38,2.38,0,0,1-3.93.05.62.62,0,1,1,1-.71,1.14,1.14,0,0,0,.41.36,1.16,1.16,0,0,0,1.07,0,1.13,1.13,0,0,0,.41-.37.62.62,0,0,1,1,.69"/></g></g></g></svg>