<svg xmlns="http://www.w3.org/2000/svg" viewBox="0 0 54 54"><defs><style>.cls-1{isolation:isolate;}.cls-2{fill:#3382c4;}.cls-3{mix-blend-mode:multiply;}.cls-4{fill:#414042;}</style></defs><title>IDWE-Category</title><g class="cls-1"><g id="Layer_1" data-name="Layer 1"><rect class="cls-2" width="54" height="54"/><g class="cls-3"><path class="cls-4" d="M27.51,15.38c.24,0,.49,0,.75,0a10.61,10.61,0,0,1,5.2,1.37,10.11,10.11,0,0,1,3.82,14A10.6,10.6,0,0,1,23,34.44a10.13,10.13,0,0,1-3.83-14A10.5,10.5,0,0,1,27.51,15.38Z"/><path class="cls-4" d="M21.55,13.55a1,1,0,0,1,1.45.54,1,1,0,0,1-.47,1.11,12.37,12.37,0,0,0-6.36,10.34,11,11,0,0,0,1.59,5.63A12.32,12.32,0,0,0,28.56,37a12.19,12.19,0,0,0,5.71-1.47,1,1,0,0,1,1.38.32,1,1,0,0,1-.4,1.33,13.7,13.7,0,0,1-5.71,1.69v1.31h2.94a1,1,0,1,1,0,1.91H24.65a1,1,0,1,1,0-1.91h2.94V38.9a14.16,14.16,0,0,1-11.53-6.77,13,13,0,0,1-1.85-6.59A14.19,14.19,0,0,1,21.55,13.55Z"/></g></g></g></svg>