<svg xmlns="http://www.w3.org/2000/svg" viewBox="0 0 54 54"><defs><style>.cls-1{isolation:isolate;}.cls-2{fill:#717ebd;}.cls-3{mix-blend-mode:multiply;}.cls-4{fill:#414042;}</style></defs><title>IDWE-Category</title><g class="cls-1"><g id="Layer_1" data-name="Layer 1"><rect class="cls-2" width="54" height="54"/><g class="cls-3"><path class="cls-4" d="M16.6,24.17,17.87,24c-.08-.3-.26-.51-.49-.5-.44,0-.58.39-.78.64m6-2.62a10.11,10.11,0,0,0,2.81-1.2c-.3-.15-.52-.28-.75-.38a1.11,1.11,0,0,0-1.62.62c0,.07-.07.15-.1.23l-.33.73m15.9,12c-.08.49-.15,1-.26,1.47a15.71,15.71,0,0,1-1.84,4.36,1.16,1.16,0,0,1-1.19.7C30.12,40,25.05,40,20,40h-.25c.12-.16.21-.29.31-.42a25.33,25.33,0,0,1,4.07-3.87c1.53-1.25,3.07-2.49,4.55-3.79A12.83,12.83,0,0,0,30.31,30a2,2,0,0,0,.27-2.26,5,5,0,0,0-.56-.71,13.27,13.27,0,0,0,2.29-2.79l-.07-.06c-.15.13-.3.26-.44.4-.64.66-1.26,1.33-1.91,2a2,2,0,0,1-1.28.67,3.35,3.35,0,0,1-.92-.14c-.49-.11-1-.3-1.45-.36a3.54,3.54,0,0,0-2,.43,10.51,10.51,0,0,0-2.59,1.66A4.28,4.28,0,0,1,18.77,30c-.5,0-1,.08-1.49,0a2.06,2.06,0,0,1-1.16-.67c.41,0,.77-.07,1.12-.13a6.28,6.28,0,0,0,2.91-1.5c.8-.66,1.57-1.36,2.38-2a12.83,12.83,0,0,1,2.66-1.43l.34-.17a1.66,1.66,0,0,0-1.13-.6,4,4,0,0,0-1.13.11,7,7,0,0,0-3.35,1.77,4.1,4.1,0,0,1-1.67,1.06,2.55,2.55,0,0,0-.35.16.69.69,0,0,0-.4.78c0,.18,0,.36.06.6a1.52,1.52,0,0,1-.94-1c-.36.05-.73.09-1.09.16s-.44.22-.38.57c0,.13,0,.26,0,.43a.76.76,0,0,1-.53-.66.46.46,0,0,0-.32-.4,1.27,1.27,0,0,1-.75-1.28A4.06,4.06,0,0,1,14,24a.94.94,0,0,1,1.39-.43.82.82,0,0,0,.94,0,6.35,6.35,0,0,0,.56-.46.78.78,0,0,1,.92-.17.53.53,0,0,0,.55-.09A6.74,6.74,0,0,0,20.27,21c.45-.61.89-1.24,1.32-1.86a.56.56,0,0,0,.1-.27,2.4,2.4,0,0,1,2.16-2.36,5.23,5.23,0,0,1,2.62.32.91.91,0,0,0,1-.22A11.11,11.11,0,0,1,32.39,14l.21,0c-.62.43-1.23.83-1.81,1.26a5.83,5.83,0,0,0-1.45,1.65c.36,0,.67.1,1,.13a.31.31,0,0,0,.21-.11,9.45,9.45,0,0,1,4-2.46,6.22,6.22,0,0,1,1.24-.29,10.47,10.47,0,0,0-3.68,3.19c.49.15,1,.27,1.39.42a13.72,13.72,0,0,1,3.68,1.86,9.72,9.72,0,0,1,1,.93,1.4,1.4,0,0,1,.17.25l0,.05a6,6,0,0,0-.76-.46,3,3,0,0,0-.89-.2,15.7,15.7,0,0,1,3.51,7.66,13.78,13.78,0,0,1-.81,8.3H39.2a4,4,0,0,1,0-.46A3.88,3.88,0,0,0,38.86,34a4,4,0,0,0-.31-.5l-.08,0"/></g></g></g></svg>