<svg xmlns="http://www.w3.org/2000/svg" width="120" height="120" viewBox="0 0 30 30">
  <metadata><?xpacket begin="﻿" id="W5M0MpCehiHzreSzNTczkc9d"?>
<x:xmpmeta xmlns:x="adobe:ns:meta/" x:xmptk="Adobe XMP Core 5.6-c138 79.159824, 2016/09/14-01:09:01        ">
   <rdf:RDF xmlns:rdf="http://www.w3.org/1999/02/22-rdf-syntax-ns#">
      <rdf:Description rdf:about=""/>
   </rdf:RDF>
</x:xmpmeta>
                                                                                                    
                                                                                                    
                                                                                                    
                                                                                                    
                                                                                                    
                                                                                                    
                                                                                                    
                                                                                                    
                                                                                                    
                                                                                                    
                                                                                                    
                                                                                                    
                                                                                                    
                                                                                                    
                                                                                                    
                                                                                                    
                                                                                                    
                                                                                                    
                                                                                                    
                                                                                                    
                           
<?xpacket end="w"?></metadata>
<defs>
    <style>
      .cls-1 {
        fill: #267788;
        fill-rule: evenodd;
      }
    </style>
  </defs>
  <path class="cls-1" d="M2351.85,2909.51h0.19a7.487,7.487,0,0,0-4.55-4.55v0.19a1.248,1.248,0,0,1-1.25,1.24v2.49a1.248,1.248,0,0,1-1.24,1.25h-2.49v0.75l2.36,2.36h1.37a1.836,1.836,0,0,1,1.87,1.87v1.87a1.248,1.248,0,0,1-1.24,1.25v0.99a7.42,7.42,0,0,0,5.6-7.22v-0.19a0.994,0.994,0,0,1-.62.19A1.245,1.245,0,1,1,2351.85,2909.51Zm-9.97,7.47v-3.24l-1.49-1.49a1.233,1.233,0,0,1-.38-0.87v-4.93a7.609,7.609,0,0,0-2.49,5.55,7.409,7.409,0,0,0,5.61,7.22v-0.99A1.25,1.25,0,0,1,2341.88,2916.98ZM2345,2897a15,15,0,1,0,15,15A14.993,14.993,0,0,0,2345,2897Zm0,24.97a9.97,9.97,0,1,1,9.96-9.97A10,10,0,0,1,2345,2921.97Z" transform="translate(-2330 -2897)"/>
</svg>
