<svg xmlns="http://www.w3.org/2000/svg" viewBox="0 0 54 54"><defs><style>.cls-1{isolation:isolate;}.cls-2{fill:#f04e3e;}.cls-3{mix-blend-mode:multiply;}.cls-4{fill:#414042;}</style></defs><title>IDWE-Category</title><g class="cls-1"><g id="Layer_1" data-name="Layer 1"><rect class="cls-2" width="54" height="54"/><g class="cls-3"><path class="cls-4" d="M32.81,31.35a3,3,0,0,1-4-1.11,2.94,2.94,0,0,1,.28-4.11,3,3,0,0,1,4,1.12,2.93,2.93,0,0,1-.28,4.11m-4.69,2H25.87a.25.25,0,0,1-.23-.36l1.21-2.41a.16.16,0,0,1,.29,0L28.35,33a.25.25,0,0,1-.23.36m-6.94-2a2.93,2.93,0,0,1-.28-4.11,3,3,0,0,1,4-1.12,2.94,2.94,0,0,1,.28,4.11,3,3,0,0,1-4,1.11m16.54-6A10.73,10.73,0,1,0,19,32.45a1.93,1.93,0,0,0-.13.68c0,1.29,1.31,2.34,2.94,2.39l.43,3.13c.05.38.53.67,1.09.67h7.41c.57,0,1-.29,1.09-.67l.43-3.13c1.63-.05,2.94-1.1,2.94-2.39a1.93,1.93,0,0,0-.13-.68,10.62,10.62,0,0,0,2.69-7.07"/></g></g></g></svg>