<svg xmlns="http://www.w3.org/2000/svg" width="120" height="120" viewBox="0 0 30 30">
  <metadata><?xpacket begin="﻿" id="W5M0MpCehiHzreSzNTczkc9d"?>
<x:xmpmeta xmlns:x="adobe:ns:meta/" x:xmptk="Adobe XMP Core 5.6-c138 79.159824, 2016/09/14-01:09:01        ">
   <rdf:RDF xmlns:rdf="http://www.w3.org/1999/02/22-rdf-syntax-ns#">
      <rdf:Description rdf:about=""/>
   </rdf:RDF>
</x:xmpmeta>
                                                                                                    
                                                                                                    
                                                                                                    
                                                                                                    
                                                                                                    
                                                                                                    
                                                                                                    
                                                                                                    
                                                                                                    
                                                                                                    
                                                                                                    
                                                                                                    
                                                                                                    
                                                                                                    
                                                                                                    
                                                                                                    
                                                                                                    
                                                                                                    
                                                                                                    
                                                                                                    
                           
<?xpacket end="w"?></metadata>
<defs>
    <style>
      .cls-1 {
        fill: #267788;
        fill-rule: evenodd;
      }
    </style>
  </defs>
  <path id="Instagram" class="cls-1" d="M2344.86,3112.46a2.675,2.675,0,1,0,2.68,2.67A2.676,2.676,0,0,0,2344.86,3112.46Zm3.36-3.88h-6.72a2.992,2.992,0,0,0-3.24,3.24v6.68a3.266,3.266,0,0,0,.91,2.42,3.329,3.329,0,0,0,2.37.86h6.65a3.328,3.328,0,0,0,2.39-.86,3.222,3.222,0,0,0,.89-2.38v-6.72a3.267,3.267,0,0,0-.87-2.36A3.306,3.306,0,0,0,2348.22,3108.58Zm-3.36,10.72a4.165,4.165,0,1,1,4.17-4.17A4.165,4.165,0,0,1,2344.86,3119.3Zm4.32-7.48a0.945,0.945,0,1,1,.95-0.95A0.947,0.947,0,0,1,2349.18,3111.82Zm-4.19-11.81A14.99,14.99,0,1,0,2360,3115,15,15,0,0,0,2344.99,3100.01Zm7.97,18.53a4.664,4.664,0,0,1-1.34,3.45,4.754,4.754,0,0,1-3.43,1.28h-6.65a4.544,4.544,0,0,1-4.78-4.77v-6.68a4.485,4.485,0,0,1,4.74-4.73h6.72a4.524,4.524,0,0,1,4.74,4.73v6.72Z" transform="translate(-2330 -3100)"/>
</svg>
