<svg xmlns="http://www.w3.org/2000/svg" viewBox="0 0 54 54"><defs><style>.cls-1{isolation:isolate;}.cls-2{fill:#00aeef;}.cls-3{mix-blend-mode:multiply;}.cls-4{fill:#414042;}</style></defs><title>IDWE-Category</title><g class="cls-1"><g id="Layer_1" data-name="Layer 1"><rect class="cls-2" width="54" height="54"/><g class="cls-3"><path class="cls-4" d="M22.54,21.92a4.4,4.4,0,0,0,.16.62.53.53,0,0,0,.27.28.57.57,0,0,0,.71-.25,3,3,0,0,0,.24-.44c.13-.28.25-.57.36-.86A7.06,7.06,0,0,1,26.83,18l1-.68,1.31-.87a.25.25,0,0,0,.11-.11.6.6,0,0,0-.4-.71,1.36,1.36,0,0,0-.82,0c-.42.13-.85.26-1.26.42a6.34,6.34,0,0,0-3.4,3,7.29,7.29,0,0,0-.82,2.9M27.42,37,28,39.46,24.8,38l1.91-1.24-.13-.09c-.24-.15-.47-.32-.72-.46a6.38,6.38,0,0,1-1.58-1.34,14.75,14.75,0,0,1-3.81-8.18,12.18,12.18,0,0,1,1.76-8.3,9.47,9.47,0,0,1,6-4.32,10.62,10.62,0,0,1,5.45.22,8.2,8.2,0,0,1,3.68,2.27,11,11,0,0,1,3.23,7.85,9.47,9.47,0,0,1-1.1,4.47A15,15,0,0,1,31,36.35a11,11,0,0,1-3.42.61h-.14"/><path class="cls-4" d="M14.82,24.43h0a12.66,12.66,0,0,1,0-1.48,4.63,4.63,0,0,1,.88-2.07c.14-.2.28-.39.41-.59a1,1,0,0,0,.17-.6.41.41,0,0,0-.57-.33,4.39,4.39,0,0,0-.81.6,5.49,5.49,0,0,0-1.63,3.6,3.28,3.28,0,0,0,.89,2.57.32.32,0,0,0,.14.1.46.46,0,0,0,.53-.41c0-.46,0-.91,0-1.37M22.36,16l-.05.09c-.28.35-.58.69-.85,1.06A13,13,0,0,0,19,26a15.57,15.57,0,0,0,2,6.58,20,20,0,0,0,1.77,2.69l.14.19c-.3,0-.57,0-.83-.07A10.47,10.47,0,0,1,17,33.08a12.23,12.23,0,0,1-4.26-6A8.79,8.79,0,0,1,13,20.77a7.39,7.39,0,0,1,2.38-2.95,11.31,11.31,0,0,1,3.08-1.67,9.87,9.87,0,0,1,1.36-.29A5.52,5.52,0,0,1,22.3,16l.07,0"/><path class="cls-4" d="M21.08,41.22a.33.33,0,0,1-.26-.53,2.49,2.49,0,0,1,2.47-.78,4.4,4.4,0,0,0,1.65-.1c1.35-.41,1.57-2.31,1.57-2.33a.33.33,0,1,1,.65.07,4.62,4.62,0,0,1-.33,1.22,2.77,2.77,0,0,1-1.7,1.67,4.94,4.94,0,0,1-1.89.12c-.81-.06-1.4-.1-1.91.54a.33.33,0,0,1-.26.12"/></g></g></g></svg>