<svg xmlns="http://www.w3.org/2000/svg" viewBox="0 0 54 54"><defs><style>.cls-1{isolation:isolate;}.cls-2{fill:#bfbb98;}.cls-3{mix-blend-mode:multiply;}.cls-4{fill:#414042;}</style></defs><title>IDWE-Category</title><g class="cls-1"><g id="Layer_1" data-name="Layer 1"><rect class="cls-2" width="54" height="54"/><g class="cls-3"><path class="cls-4" d="M32.47,25H14a3.48,3.48,0,0,0-3.44,3.51v2.71a1.93,1.93,0,0,0,1.91,1.95h.43a4.83,4.83,0,0,1,4.45-3H34.81a4.84,4.84,0,0,1,4.39,2.94c1-.17,2.52-.69,2.46-2C41.57,29.52,37.78,25,32.47,25"/><path class="cls-4" d="M20.1,23.9H31a2.49,2.49,0,0,0,0-5H28.68v-.71a.76.76,0,0,0-.76-.77H23.56a.76.76,0,0,0-.76.77v.71H20.1a2.49,2.49,0,0,0,0,5"/><path class="cls-4" d="M35,36.93a1.81,1.81,0,1,1,1.78-1.81A1.8,1.8,0,0,1,35,36.93m-5.92,0a1.81,1.81,0,1,1,1.78-1.81A1.8,1.8,0,0,1,29,36.93m-5.92,0a1.81,1.81,0,1,1,1.78-1.81,1.8,1.8,0,0,1-1.78,1.81m-5.92,0A1.81,1.81,0,1,1,19,35.11a1.8,1.8,0,0,1-1.78,1.81m17.61-5.82H17.32a4,4,0,0,0,0,8H34.81a4,4,0,0,0,0-8"/><polygon class="cls-4" points="41 19.28 41 20.23 34.26 20.23 34.26 22.59 41 22.59 41 23.55 44.95 23.55 44.95 19.28 41 19.28"/></g></g></g></svg>