<svg xmlns="http://www.w3.org/2000/svg" viewBox="0 0 54 54"><defs><style>.cls-1{isolation:isolate;}.cls-2{fill:#3eb660;}.cls-3{mix-blend-mode:multiply;}.cls-4{fill:#414042;}</style></defs><title>IDWE-Category</title><g class="cls-1"><g id="Layer_1" data-name="Layer 1"><rect class="cls-2" width="54" height="54"/><g class="cls-3"><path class="cls-4" d="M39.8,20.39c0-.09,0-.19,0-.27l0-.17,0-.08v-.09h0l0-.05-.07-.21A4.33,4.33,0,0,0,38.64,18a5.09,5.09,0,0,0-1.25-.91,4,4,0,0,1-.89-.61,2,2,0,0,1-.47-.8,5.24,5.24,0,0,1-.21-1.59c0-.41,0-.64,0-.64s-.08.22-.2.61a5.78,5.78,0,0,0-.28,1.73A2.88,2.88,0,0,0,35.65,17a4.91,4.91,0,0,0,.87,1.13,3.49,3.49,0,0,1,.68.91,2.38,2.38,0,0,1,.21,1v.16h0s0-.1,0,0h0v.28a.32.32,0,0,1,0,.07,2.94,2.94,0,0,1-.14.33,2.42,2.42,0,0,1-.5.6,5.63,5.63,0,0,1-1.52.87l-.08,0a13,13,0,0,1,2,3.22l.09-.07a8.46,8.46,0,0,0,2-2.28,4.9,4.9,0,0,0,.6-1.8,4.22,4.22,0,0,0,0-1"/><path class="cls-4" d="M18.78,22.32a5.62,5.62,0,0,1-1.52-.87,2.31,2.31,0,0,1-.5-.6,2.6,2.6,0,0,1-.14-.33.27.27,0,0,1,0-.07v-.28h0c0-.05,0,.07,0,.05h0V20a2.42,2.42,0,0,1,.21-1,3.45,3.45,0,0,1,.68-.91A5,5,0,0,0,18.35,17a2.83,2.83,0,0,0,.31-1.27A5.77,5.77,0,0,0,18.38,14c-.12-.39-.2-.61-.2-.61s0,.23,0,.64A5.33,5.33,0,0,1,18,15.67a2,2,0,0,1-.47.8,4,4,0,0,1-.89.61,5.18,5.18,0,0,0-1.25.91,4.32,4.32,0,0,0-.93,1.52l-.07.2,0,.05h0v.09l0,.08-.05.17c0,.08,0,.18,0,.27a4.21,4.21,0,0,0,0,1,4.9,4.9,0,0,0,.6,1.8,8.48,8.48,0,0,0,2,2.28l.09.07a13,13,0,0,1,2-3.22l-.08,0"/><path class="cls-4" d="M31.29,31.86a2.61,2.61,0,0,1-2.6-2.35A43.23,43.23,0,0,0,33.88,29c0,.07,0,.15,0,.23a2.61,2.61,0,0,1-2.61,2.61m-1.08,3.86h-.16l-.62,2.1-.61-2.1H27.67l-.62,2.1-.62-2.1H25.29l-.61,2.1-.62-2.1h-.16a.43.43,0,0,1,0-.87h6.3a.43.43,0,0,1,0,.87m-10-6.47c0-.08,0-.15,0-.23a43.23,43.23,0,0,0,5.19.48,2.61,2.61,0,0,1-5.2-.26m6.84-9.12c-5.48,0-9.92,2.87-9.92,9.12s4.44,11.31,9.92,11.31S37,35.5,37,29.25s-4.44-9.12-9.92-9.12"/></g></g></g></svg>