<svg xmlns="http://www.w3.org/2000/svg" viewBox="0 0 54 54"><defs><style>.cls-1{isolation:isolate;}.cls-2{fill:#b91122;}.cls-3{mix-blend-mode:multiply;}.cls-4{fill:#414042;}</style></defs><title>IDWE-Category</title><g class="cls-1"><g id="Layer_1" data-name="Layer 1"><rect class="cls-2" width="54" height="54"/><g class="cls-3"><path class="cls-4" d="M29.74,14.44a9.5,9.5,0,1,0,9.5,9.5,9.5,9.5,0,0,0-9.5-9.5m0,16.15a6.65,6.65,0,1,1,6.65-6.65,6.65,6.65,0,0,1-6.65,6.65m-5.57,3.3-4.9,4.9a2.64,2.64,0,1,1-3.74-3.73l4.75-4.75A11.38,11.38,0,0,0,24.17,33.89Zm8.78-7.42a1.07,1.07,0,0,1-.27,0A1,1,0,0,1,32,25.18a3.67,3.67,0,0,0-.91-3.79,1,1,0,0,1,1.29-1.57,5.66,5.66,0,0,1,1.57,5.9A1,1,0,0,1,32.95,26.47Z"/></g></g></g></svg>