<svg xmlns="http://www.w3.org/2000/svg" viewBox="0 0 54 54"><defs><style>.cls-1{isolation:isolate;}.cls-2{fill:#007f6d;}.cls-3{mix-blend-mode:multiply;}.cls-4{fill:#414042;}</style></defs><title>IDWE-Category</title><g class="cls-1"><g id="Layer_1" data-name="Layer 1"><rect class="cls-2" width="54" height="54"/><g class="cls-3"><path class="cls-4" d="M27,24.85c5.14.12,7.59-1.09,8.32-1.94,0-3.4-2.81-8.25-4.65-8.25-1.47,0-2.08,1.21-3.67,1.21s-2.2-1.21-3.67-1.21c-1.84,0-4.65,4.86-4.65,8.25.73.85,3.18,1.94,8.32,1.94"/><path class="cls-4" d="M27.07,38.18A6.33,6.33,0,0,1,25.58,38l4.08-8a30.75,30.75,0,0,0,5-.7c-.17,4.94-3.51,8.9-7.59,8.9M39.24,26.43c0-1-1.47-1.94-3.67-2.55V24c0,.73-2.2,2.43-8.57,2.43s-8.57-1.7-8.57-2.43v-.12c-2.2.61-3.67,1.58-3.67,2.55S16.11,28.35,18.3,29c.05,5.72,4,10.34,8.77,10.34S35.82,34.7,35.84,29h0c2.1-.65,3.4-1.53,3.4-2.53"/></g></g></g></svg>