<svg xmlns="http://www.w3.org/2000/svg" viewBox="0 0 54 54"><defs><style>.cls-1{isolation:isolate;}.cls-2{fill:#86abbd;}.cls-3{mix-blend-mode:multiply;}.cls-4{fill:#414042;}</style></defs><title>IDWE-Category</title><g class="cls-1"><g id="Layer_1" data-name="Layer 1"><rect class="cls-2" width="54" height="54"/><g class="cls-3"><path class="cls-4" d="M18.43,14.83H35.57a1.52,1.52,0,0,1,0,3h-.05v1.52a7.65,7.65,0,0,1-4.86,7.17.42.42,0,0,0-.28.38v.11a.42.42,0,0,0,.28.38,7.59,7.59,0,0,1,3.54,2.82,7.67,7.67,0,0,1,1.32,4.34v1.52h.06a1.52,1.52,0,0,1,0,3H18.43a1.52,1.52,0,0,1,0-3h.05V34.6a7.66,7.66,0,0,1,4.86-7.17.42.42,0,0,0,.28-.38v-.11a.42.42,0,0,0-.28-.38,7.65,7.65,0,0,1-4.85-7.17V17.87h-.06a1.52,1.52,0,0,1,0-3m2.07,4.56a5.66,5.66,0,0,0,1,3.2,5.59,5.59,0,0,0,2.61,2.08,2.43,2.43,0,0,1,1.56,2.26v.11a2.43,2.43,0,0,1-1.56,2.26A5.64,5.64,0,0,0,20.5,34.6v1.52h13V34.6a5.64,5.64,0,0,0-3.58-5.29,2.43,2.43,0,0,1-1.56-2.26v-.11a2.43,2.43,0,0,1,1.56-2.26,5.64,5.64,0,0,0,3.58-5.29V17.87h-13ZM31.43,22a.46.46,0,0,0,0-.47.45.45,0,0,0-.4-.24H22.95a.45.45,0,0,0-.38.71,4.39,4.39,0,0,0,2,1.53,3.71,3.71,0,0,1,1.94,1.74.59.59,0,0,0,1,0,3.71,3.71,0,0,1,1.94-1.74A4.38,4.38,0,0,0,31.43,22Zm-5.69,9.18a2.29,2.29,0,0,1-1.58.61,2.34,2.34,0,0,0-2.27,1.78l0,.1a3.92,3.92,0,0,0-.09.7.51.51,0,0,0,.5.53h9.43a.5.5,0,0,0,.37-.16.51.51,0,0,0,.14-.37,3.92,3.92,0,0,0-.09-.73l0-.11h0a2.33,2.33,0,0,0-2.27-1.74,2.31,2.31,0,0,1-1.58-.6,3.63,3.63,0,0,1-.74-1,.59.59,0,0,0-.64-.31.61.61,0,0,0-.42.32A3.67,3.67,0,0,1,25.74,31.15Z"/></g></g></g></svg>