<svg xmlns="http://www.w3.org/2000/svg" viewBox="0 0 54 54"><defs><style>.cls-1{isolation:isolate;}.cls-2{fill:#00b79b;}.cls-3{mix-blend-mode:multiply;}.cls-4{fill:#414042;}</style></defs><title>IDWE-Category</title><g class="cls-1"><g id="Layer_1" data-name="Layer 1"><rect class="cls-2" width="54" height="54"/><g class="cls-3"><path class="cls-4" d="M29.57,15.89A2.57,2.57,0,1,1,27,13.32a2.56,2.56,0,0,1,2.56,2.56"/><path class="cls-4" d="M18.45,27v3.42h1.71V40.68H33.84V30.42h1.71V27Zm11.12,6.84a2.57,2.57,0,0,1-5.13,0V31.28h5.13Z"/><path class="cls-4" d="M21.87,25.29V23.58a.86.86,0,0,1,1.71,0v1.71h6.84V23.58a.85.85,0,0,1,.86-.85,3.42,3.42,0,0,0,3.42-3.42V14.6a1.28,1.28,0,0,0-2.57,0v3.85a1.71,1.71,0,0,1-1.71,1.71H22.73a3.42,3.42,0,0,0-3.42,3.42v1.71h2.56Z"/></g></g></g></svg>