<svg xmlns="http://www.w3.org/2000/svg" viewBox="0 0 54 54"><defs><style>.cls-1{isolation:isolate;}.cls-2{fill:#f7a399;}.cls-3{mix-blend-mode:multiply;}.cls-4{fill:#414042;}</style></defs><title>IDWE-Category</title><g class="cls-1"><g id="Layer_1" data-name="Layer 1"><rect class="cls-2" width="54" height="54"/><g class="cls-3"><path class="cls-4" d="M30.49,18.73c-1.55.48-2.62.9-3.49,1.14-.87-.24-1.94-.66-3.49-1.14-4.06-1.27-6.77,3.64-10.91,7.86,0,0,3.72,6.43,7.7,8.16a9.43,9.43,0,0,0,6.7.18,9.44,9.44,0,0,0,6.7-.18c4-1.73,7.7-8.16,7.7-8.16-4.14-4.23-6.85-9.13-10.91-7.86ZM27,28c-3.31,0-6-.45-6-1s2.68-1,6-1,6,.45,6,1-2.68,1-6,1"/></g></g></g></svg>