<svg xmlns="http://www.w3.org/2000/svg" viewBox="0 0 54 54"><defs><style>.cls-1{isolation:isolate;}.cls-2{fill:#7d9886;}.cls-3{mix-blend-mode:multiply;}.cls-4{fill:#414042;}</style></defs><title>IDWE-Category</title><g class="cls-1"><g id="Layer_1" data-name="Layer 1"><rect class="cls-2" width="54" height="54"/><g class="cls-3"><path class="cls-4" d="M34.29,28,20.41,29.86h-.09a.68.68,0,0,1-.09-1.35l13.88-1.88a.66.66,0,0,1,.74.58.67.67,0,0,1-.57.76M22.45,21.23a1.69,1.69,0,1,1-1.66,1.69,1.67,1.67,0,0,1,1.66-1.69m8.87,0a1.69,1.69,0,1,1-1.66,1.69,1.67,1.67,0,0,1,1.66-1.69m4.54-4H18.13A2.69,2.69,0,0,0,15.48,20v11a2.69,2.69,0,0,0,2.65,2.7h9.56L33,38.86V33.62h2.89a2.69,2.69,0,0,0,2.65-2.7V20a2.69,2.69,0,0,0-2.65-2.7"/></g></g></g></svg>