<svg xmlns="http://www.w3.org/2000/svg" viewBox="0 0 54 54"><defs><style>.cls-1{isolation:isolate;}.cls-2{fill:#fff685;}.cls-3{mix-blend-mode:multiply;}.cls-4{fill:#414042;}</style></defs><title>IDWE-Category</title><g class="cls-1"><g id="Layer_1" data-name="Layer 1"><rect class="cls-2" width="54" height="54"/><g class="cls-3"><path class="cls-4" d="M26.94,30.74a2.15,2.15,0,1,0-2.15-2.15,2.15,2.15,0,0,0,2.15,2.15"/><path class="cls-4" d="M30.73,37.06a1.3,1.3,0,1,1,1.3-1.3,1.3,1.3,0,0,1-1.3,1.3m-3.79,0a1.3,1.3,0,1,1,1.3-1.3,1.3,1.3,0,0,1-1.3,1.3m-3.79,0a1.3,1.3,0,1,1,1.3-1.3,1.3,1.3,0,0,1-1.3,1.3m3.79-12.92a4.44,4.44,0,1,1-4.44,4.44,4.44,4.44,0,0,1,4.44-4.44m17.38,2.62a3.46,3.46,0,0,0-.8-2.21L42.27,25.8a1.72,1.72,0,1,1-2.85,0l-1.25-1.25a3.47,3.47,0,0,0,1.69,5.54l-.35,1.55a1.14,1.14,0,0,1-1.11.89H35.85v-4h0a8.9,8.9,0,0,0-8-8.47V17.67C29.09,17.46,30,16.78,30,16c0-1-1.39-1.76-3.1-1.76s-3.1.79-3.1,1.76c0,.8.95,1.48,2.24,1.69v2.39a8.9,8.9,0,0,0-8,8.47h0v4H15.61a1.14,1.14,0,0,1-1.11-.89l-.35-1.55a3.47,3.47,0,0,0,1.69-5.54L14.58,25.8a1.72,1.72,0,1,1-2.85,0l-1.25-1.25a3.47,3.47,0,0,0,1.91,5.6L12.82,32a2.85,2.85,0,0,0,2.79,2.22H18v2.69a3.51,3.51,0,0,0,3.52,3.51H32.33a3.51,3.51,0,0,0,3.51-3.51V34.25h2.54A2.85,2.85,0,0,0,41.18,32l.43-1.88a3.47,3.47,0,0,0,2.71-3.38"/></g></g></g></svg>