<svg xmlns="http://www.w3.org/2000/svg" viewBox="0 0 54 54"><defs><style>.cls-1{isolation:isolate;}.cls-2{fill:#fff200;}.cls-3{mix-blend-mode:multiply;}.cls-4{fill:#414042;}</style></defs><title>IDWE-Category</title><g class="cls-1"><g id="Layer_1" data-name="Layer 1"><rect class="cls-2" width="54" height="54"/><g class="cls-3"><path class="cls-4" d="M27.85,23.73a.82.82,0,0,1-.14.2,3.4,3.4,0,0,0-.64,1.1,7.73,7.73,0,0,0,1-.43c0-.18-.09-.38-.15-.58l-.08-.3"/><path class="cls-4" d="M34.87,26.44a26.48,26.48,0,0,0-.58,2.7c-.1.71-.13,1.35-.15,1.89v.1l-.08.06a1.79,1.79,0,0,1-1.22.19l-.11,0,0-.1c-.36-.85-.7-1.56-1-2.13l-.11.24a4.51,4.51,0,0,0-.19.45,13.81,13.81,0,0,0-.53,2l-.1.37a1,1,0,0,1-.87.34l-.39,0H29.3l0-.12A7.43,7.43,0,0,1,28.93,31c0-.22-.07-.45-.14-.73s-.12-.54-.17-.8a12,12,0,0,0-.3-1.27c0-.1,0-.36.37-.49s.88-.13,1,.18l0,.08a9.42,9.42,0,0,0,.17,1.72l0-.07.19-.56.66-2,0-.06.05,0A1.29,1.29,0,0,1,32,26.91l.07,0,0,.07c.1.22.18.42.26.63s.22.56.39.9l.14.3.11.23c0-.12.06-.26.09-.41s.06-.29.09-.44a18.94,18.94,0,0,0,.4-2v-.07l.06,0a1.18,1.18,0,0,1,1.19,0,.28.28,0,0,1,.05.35M28.22,31.2a2.76,2.76,0,0,1-2.71,2.42,3.24,3.24,0,0,1-.51,0,3,3,0,0,1-1.43-.83,2.46,2.46,0,0,1-.24-3,3,3,0,0,1,3.32-1.55h0c.64,0,.92.49,1.17.92.06.11.13.23.21.34a2.19,2.19,0,0,1,.18,1.72m-5.62,0a3.12,3.12,0,0,1-.79,1.22,8.22,8.22,0,0,1-2.24,1.48,1.57,1.57,0,0,0-.13,1,.63.63,0,0,1,0,.34l0,0,0,0a.72.72,0,0,1-.48.15,1,1,0,0,1-.47-.11.44.44,0,0,1-.26-.43,3.63,3.63,0,0,1,.1-1c0-.17.07-.36.11-.6.09-.59.15-1.11.21-1.62s.13-1.16.24-1.7l0-.11.11,0,.6-.24a4.6,4.6,0,0,1,2.23-.5h0l0,0,.14.07a1.29,1.29,0,0,1,.41.28,1.58,1.58,0,0,1,.19,1.71m-3.44-2.81a5.55,5.55,0,0,1,.25-1.27c.06-.21.12-.43.17-.66.22-1,.33-1.47.49-2.5,0-.25.11-.56.17-.79l0-.15.05,0a1.4,1.4,0,0,1,1.09-.15.42.42,0,0,1,.28.35,3,3,0,0,1-.1.63,2.76,2.76,0,0,0-.09.49l0,0,.15-.12a3.86,3.86,0,0,0,.48-.37,3.62,3.62,0,0,1,.84-.58,3,3,0,0,0,.58-.39,2.25,2.25,0,0,1,.73-.44l0,0h0c.26,0,.36.21.45.38A1.79,1.79,0,0,0,25,23a.65.65,0,0,1-.12.84l0,0h-.05a2.92,2.92,0,0,0-1.28.7,8.07,8.07,0,0,1-.74.56l-.53.36-.06,0,.31.19.37.22a4.34,4.34,0,0,0,.51.27,1.76,1.76,0,0,1,1,.83l0,0c.08.36-.33.77-.64.91l-.1,0-.09-.06-.49-.35A6.63,6.63,0,0,0,21,26.47a2.8,2.8,0,0,0-.07.47,3.71,3.71,0,0,1-.08.55,2.83,2.83,0,0,0-.07.44,2.58,2.58,0,0,1-.12.62l0,.09-.09,0a1.78,1.78,0,0,1-.62.13.84.84,0,0,1-.69-.3l0-.06Zm6.6-3.57c.76-1.33,1.26-2.21,2-3.34l.06-.1h.11a1.45,1.45,0,0,1,.72.18l.08,0,0,.08c.07.29.17.69.29,1.23s.31,1.32.53,2.23a4.89,4.89,0,0,0,.19.55,4.33,4.33,0,0,1,.21.63.35.35,0,0,1-.06.33,1.09,1.09,0,0,1-.91.31.39.39,0,0,1-.34-.25c-.1-.29-.17-.53-.25-.83-.91.33-1.64.66-2,.82l-.13.06a1.87,1.87,0,0,1-.16.36,2.08,2.08,0,0,0-.17.38v0a.47.47,0,0,1-.44.26.8.8,0,0,1-.25,0c-.29-.1-.57-.34-.56-.59a.8.8,0,0,1,.21-.58,1.3,1.3,0,0,0,.17-.3A8.75,8.75,0,0,1,25.68,25ZM30,23.64l0-.07.06,0a3.19,3.19,0,0,1,1.17-.38l.44-.09.41-.12c.53-.16,1-.31,1.22-.07l0,0V23a1.1,1.1,0,0,0,.07.22.75.75,0,0,1,.09.38c0,.32-.48.43-.94.56l-.34.1a6.69,6.69,0,0,1-1,.21c-.27,0-.55.1-.77.15l-.13,0-.08-.1a.93.93,0,0,1-.3-.89m13.83,6.73-6.4-3.93,4.47-5.32L34,21.35l-1.68-6.49-5,4.56-3.47-4.78L21.5,19.8l-8.18-2.47L16.49,24l-4.86,1.54,4.07,3.3-6.54,5,7.25.08-1.23,5,7.4-3.11,4,5.25,4.32-4.86,8.18,1.62L37.24,32Z"/><path class="cls-4" d="M19.71,32.26a3.7,3.7,0,0,0,.58-.25c.8-.61,1-1,1.06-1.47A3,3,0,0,0,20,30.9a3.24,3.24,0,0,0-.27,1.35"/><path class="cls-4" d="M25.3,29.77l0,0c-.56.45-1.25,1-1.05,1.78.08.29.34.46.75.63.59.25,1-.05,1.48-.59a1.66,1.66,0,0,0,.38-1.94,1.73,1.73,0,0,0-1.54.1"/></g></g></g></svg>