<svg xmlns="http://www.w3.org/2000/svg" viewBox="0 0 54 54"><defs><style>.cls-1{isolation:isolate;}.cls-2{fill:#b2dbb5;}.cls-3{mix-blend-mode:multiply;}.cls-4{fill:#414042;}</style></defs><title>IDWE-Category</title><g class="cls-1"><g id="Layer_1" data-name="Layer 1"><rect class="cls-2" width="54" height="54"/><g class="cls-3"><path class="cls-4" d="M27,16.67A9.35,9.35,0,0,0,17.64,26V37.31c.8.25,1.62-2,2.47-2s1.42,2,2.24,2,1.62-2,2.44-2,1.42,2,2.24,2,1.62-2,2.44-2,1.39,2,2.24,2,1.6-2,2.42-2,1.42,2.19,2.22,2V26A9.39,9.39,0,0,0,27,16.67M23.17,28.88a2.62,2.62,0,1,1,2.62-2.62,2.61,2.61,0,0,1-2.62,2.62m7.73,0a2.62,2.62,0,1,1,2.62-2.62,2.62,2.62,0,0,1-2.62,2.62"/></g></g></g></svg>