<svg xmlns="http://www.w3.org/2000/svg" viewBox="0 0 54 54"><defs><style>.cls-1{isolation:isolate;}.cls-2{fill:#cf128c;}.cls-3{mix-blend-mode:multiply;}.cls-4{fill:#414042;}</style></defs><title>IDWE-Category</title><g class="cls-1"><g id="Layer_1" data-name="Layer 1"><rect class="cls-2" width="54" height="54"/><g class="cls-3"><path class="cls-4" d="M19.72,25.72c.34.58.47,1.27.8,1.88a12.76,12.76,0,0,0,1.19,1.67,2.33,2.33,0,0,0,.36.4,2.35,2.35,0,0,1,.44.21c.08.08,0,.24,0,.24l-.16.58a.7.7,0,0,0-.57.32,2.85,2.85,0,0,0-.39.87l-.18.42c-.08.16-.21.29-.29.42a.8.8,0,0,0-.05.42l-.54.53c-1.81,1.83-3.72,4-4.48,6.3H38.11a6.38,6.38,0,0,0-2.92-3c-.49-.34-1-.63-1.47-1a12.08,12.08,0,0,1-1.24-1.32s-.57-.42-.54-.71.47-.48.47-.48a4,4,0,0,0,.78-.77c.13-.27,1.34-2.12,1.4-2.2s.21-.18.29-.24,1.16-1,1.24-1.72a1.13,1.13,0,0,0-.39-1.06s.67-.37.67-.9a.64.64,0,0,0-.49-.64s.23-.08.26-.5a.73.73,0,0,0-.31-.64,1,1,0,0,0-.08-.37c-.08-.16-.39-.66-.39-.66a.15.15,0,0,1,0-.16c.05-.08.49-.19.6-.27a1.45,1.45,0,0,0,.54-.74.59.59,0,0,0-.16-.58c-.08-.08-.93-.79-1-.82l-.72-.42a3.48,3.48,0,0,1-1-.77,2,2,0,0,1-.16-.69,2.13,2.13,0,0,0-.47-1,4.33,4.33,0,0,0-.6-.77,7.93,7.93,0,0,0-1.32-1.08,10.43,10.43,0,0,0-1.42-.66c-.16-.05-1.19-.29-1.19-.29s-.1-.13-.16-.13a2,2,0,0,0-.52-.29,3.64,3.64,0,0,0-2-.08,8.83,8.83,0,0,0-1.63.63c-.34.13-.67.27-1,.42L21,17a4.78,4.78,0,0,0-2.41,3.28,7,7,0,0,0,.49,4.55A8.1,8.1,0,0,1,19.72,25.72Z"/></g></g></g></svg>