<svg xmlns="http://www.w3.org/2000/svg" viewBox="0 0 54 54"><defs><style>.cls-1{isolation:isolate;}.cls-2{fill:#9adbf9;}.cls-3{mix-blend-mode:multiply;}.cls-4{fill:#414042;}</style></defs><title>IDWE-Category</title><g class="cls-1"><g id="Layer_1" data-name="Layer 1"><rect class="cls-2" width="54" height="54"/><g class="cls-3"><path class="cls-4" d="M28.21,31.16l5.48-5.38a1.25,1.25,0,0,0,0-1.8,1.33,1.33,0,0,0-1.85,0l-4.56,4.48-3-2.92a1.33,1.33,0,0,0-1.85,0,1.25,1.25,0,0,0,0,1.8l3.92,3.82a1.32,1.32,0,0,0,.92.37A1.31,1.31,0,0,0,28.21,31.16Z"/><path class="cls-4" d="M27.59,17.19A11.9,11.9,0,0,0,15.43,28.9a10.55,10.55,0,0,0,2.29,6.77H15.58a1.4,1.4,0,0,0,0,2.79H22.4V31.62a1.29,1.29,0,1,0-2.57,0v2.57c-1.43-1.49-1.55-3.26-1.55-5.14a9.25,9.25,0,1,1,9.29,9,1.44,1.44,0,1,0,0,2.88A12,12,0,0,0,39.74,29.05,12,12,0,0,0,27.59,17.19Z"/><path class="cls-4" d="M25.66,16.16h3.85a1.54,1.54,0,1,0,0-3.07H25.66a1.54,1.54,0,1,0,0,3.07"/></g></g></g></svg>