<svg xmlns="http://www.w3.org/2000/svg" width="120" height="120" viewBox="0 0 30 30">
  <metadata><?xpacket begin="﻿" id="W5M0MpCehiHzreSzNTczkc9d"?>
<x:xmpmeta xmlns:x="adobe:ns:meta/" x:xmptk="Adobe XMP Core 5.6-c138 79.159824, 2016/09/14-01:09:01        ">
   <rdf:RDF xmlns:rdf="http://www.w3.org/1999/02/22-rdf-syntax-ns#">
      <rdf:Description rdf:about=""/>
   </rdf:RDF>
</x:xmpmeta>
                                                                                                    
                                                                                                    
                                                                                                    
                                                                                                    
                                                                                                    
                                                                                                    
                                                                                                    
                                                                                                    
                                                                                                    
                                                                                                    
                                                                                                    
                                                                                                    
                                                                                                    
                                                                                                    
                                                                                                    
                                                                                                    
                                                                                                    
                                                                                                    
                                                                                                    
                                                                                                    
                           
<?xpacket end="w"?></metadata>
<defs>
    <style>
      .cls-1 {
        fill: #267788;
        fill-rule: evenodd;
      }
    </style>
  </defs>
  <path id="Twitter" class="cls-1" d="M2344,3033a15,15,0,1,0,15,15A15.005,15.005,0,0,0,2344,3033Zm4.03,23.74c-0.62,0-4.04-.08-4.91-0.08a6.386,6.386,0,0,1-5.43-6.43v-2.69l-0.03-2.49v-0.72a12.411,12.411,0,0,1,.29-3.9,1.872,1.872,0,0,1,1.95-1.29c2.19,0,2.34,2.23,2.34,4.47h6.33c1,0,1.75,1.02,1.75,2.57s-1.62,1.9-2.47,1.9h-5.68c-0.03.96-.06,1.73-0.06,2.2,0,0.99.39,2.06,2.81,2.06h3.4a2.206,2.206,0,0,1,2.1,2.44C2350.42,3056.57,2348.65,3056.74,2348.03,3056.74Z" transform="translate(-2329 -3033)"/>
</svg>
