<svg xmlns="http://www.w3.org/2000/svg" viewBox="0 0 54 54"><defs><style>.cls-1{isolation:isolate;}.cls-2{fill:#a15122;}.cls-3{mix-blend-mode:multiply;}.cls-4{fill:#414042;}</style></defs><title>IDWE-Category</title><g class="cls-1"><g id="Layer_1" data-name="Layer 1"><rect class="cls-2" width="54" height="54"/><g class="cls-3"><path class="cls-4" d="M41,31.43l-1.84.35-.7-1.69-.7,1.69-1.84-.22.71,1H35.45V19a4.06,4.06,0,0,0-1.17-2.72,6,6,0,0,0-4.37-1.49h0a1.56,1.56,0,0,1-.29,0C26.92,14.79,24,15.91,24,19L24,30.35a4,4,0,0,1-1,2.87,5.91,5.91,0,0,1-4.41,1.55H14.75c-1.25,0-1.59.39-1.69.68s-.13.67.62,1.17a36.71,36.71,0,0,0,5.62,2.1,8.55,8.55,0,0,0,3.26.52h0a8.72,8.72,0,0,0,2.94-.57c1.62-.63,2.66-.88,2.94-1v1.41h.72a12,12,0,0,0,4.64-.64l.08-.07.06-.08a5.37,5.37,0,0,0,1.47-2.62l0-.12V33.42H36.8l-.9,1L37.74,34l.7,1.66.7-1.7,1.84.35-1.13-1.46Z"/></g></g></g></svg>