<svg xmlns="http://www.w3.org/2000/svg" viewBox="0 0 54 54"><defs><style>.cls-1{isolation:isolate;}.cls-2{fill:#ef60a3;}.cls-3{mix-blend-mode:multiply;}.cls-4{fill:#414042;}</style></defs><title>IDWE-Category</title><g class="cls-1"><g id="Layer_1" data-name="Layer 1"><rect class="cls-2" width="54" height="54"/><g class="cls-3"><path class="cls-4" d="M43.52,23.5a.34.34,0,1,1,.34-.34.35.35,0,0,1-.34.34m0,.92a.34.34,0,1,1,.34-.34.34.34,0,0,1-.34.34m-33,0a.34.34,0,1,1,.34-.35.34.34,0,0,1-.34.35m-.35-1.26a.34.34,0,1,1,.34.34.34.34,0,0,1-.34-.34m34.95-.92c-11.89-2.74-14.85,0-14.85,0a2.32,2.32,0,0,0-.66.66,12.41,12.41,0,0,0-2.5-.22,10.48,10.48,0,0,0-2.61.28,2.4,2.4,0,0,0-.7-.72s-3-2.76-14.85,0L9,24.89a2.18,2.18,0,0,1,1.65,2.06l.08.49c.21,1.24,1.05,4.93,3.81,5.33a17.56,17.56,0,0,0,6.78-.26s3.17-.6,3.68-5.71a8.59,8.59,0,0,0,.07-1.17,2.54,2.54,0,0,1,2-.83,2.87,2.87,0,0,1,1.8.58A8.2,8.2,0,0,0,29,26.8c.51,5.11,3.68,5.71,3.68,5.71a17.57,17.57,0,0,0,6.78.26c2.76-.4,3.6-4.09,3.81-5.33-.06.39-.1.75.08-.49A2.18,2.18,0,0,1,45,24.89Z"/></g></g></g></svg>