<?xml version="1.0" encoding="utf-8"?>
<!-- Generated by IcoMoon.io -->
<svg version="1.1" xmlns="http://www.w3.org/2000/svg" xmlns:xlink="http://www.w3.org/1999/xlink" width="752" height="80" viewBox="0 0 752 80">
<svg id="icon-NEWFlag" width="32" height="32" viewBox="0 0 32 32" x="0" y="0">
<path fill="#ffc600" d="M4.085 0h23.83v32c0 0-6.094-2.791-11.915-5.447-6.979 3.234-11.915 5.447-11.915 5.447v-32z"></path>
<path fill="#2e373c" d="M7.694 15.591v3.949h-1.464v-6.638h1.396l2.451 3.949v-3.949h1.464v6.672h-1.396l-2.451-3.983z"></path>
<path fill="#2e373c" d="M12.664 12.902h4.664v1.294h-3.166v1.396h2.689v1.294h-2.689v1.396h3.166v1.294h-4.664v-6.672z"></path>
<path fill="#2e373c" d="M17.668 12.902h1.532l0.987 4.8 1.021-4.8h1.43l1.021 4.8 0.987-4.8h1.464l-1.6 6.672h-1.702l-0.919-3.949-0.919 3.949h-1.668l-1.634-6.672z"></path>
</svg>
<svg id="icon-ACTION" width="32" height="32" viewBox="0 0 32 32" x="48" y="0">
<path fill="#ed1c24" d="M0 0h32v32h-32v-32z"></path>
<path fill="#414042" d="M20.853 9.553c0.001-0.005 0.001-0.012 0.001-0.018 0-0.102-0.083-0.185-0.185-0.185-0.096 0-0.174 0.073-0.184 0.166l-0 0.001c-0.001 0.005-0.001 0.012-0.001 0.018 0 0.102 0.083 0.185 0.185 0.185 0.096 0 0.174-0.073 0.184-0.166l0-0.001z"></path>
<path fill="#414042" d="M19.556 11.313c-0.042 0.035-0.069 0.087-0.069 0.145 0 0.104 0.084 0.187 0.187 0.187 0.045 0 0.087-0.016 0.119-0.043l-0 0c0.032-0.034 0.052-0.080 0.052-0.13s-0.020-0.096-0.052-0.13l0 0c-0.033-0.034-0.079-0.054-0.13-0.054s-0.097 0.021-0.13 0.054v0z"></path>
<path fill="#414042" d="M21.653 9.979c0.001-0.005 0.001-0.012 0.001-0.018 0-0.102-0.083-0.185-0.185-0.185-0.096 0-0.174 0.073-0.184 0.166l-0 0.001c-0.001 0.005-0.001 0.012-0.001 0.018 0 0.102 0.083 0.185 0.185 0.185 0.096 0 0.174-0.073 0.184-0.166l0-0.001z"></path>
<path fill="#414042" d="M21.185 11.473c-0.033 0.033-0.053 0.079-0.053 0.129 0 0.101 0.082 0.184 0.184 0.184s0.184-0.082 0.184-0.184c0-0.050-0.020-0.096-0.053-0.129v0c-0.033-0.034-0.079-0.054-0.13-0.054s-0.097 0.021-0.13 0.054v0z"></path>
<path fill="#414042" d="M19.988 9.807c0.001-0.005 0.001-0.012 0.001-0.018 0-0.102-0.083-0.185-0.185-0.185-0.096 0-0.174 0.073-0.184 0.166l-0 0.001c-0.001 0.005-0.001 0.012-0.001 0.018 0 0.102 0.083 0.185 0.185 0.185 0.096 0 0.174-0.073 0.184-0.166l0-0.001z"></path>
<path fill="#414042" d="M20.255 11.852c-0.001 0.005-0.001 0.012-0.001 0.018 0 0.102 0.083 0.185 0.185 0.185 0.096 0 0.174-0.073 0.184-0.166l0-0.001c0.001-0.005 0.001-0.012 0.001-0.018 0-0.102-0.083-0.185-0.185-0.185-0.096 0-0.174 0.073-0.184 0.166l-0 0.001z"></path>
<path fill="#414042" d="M21.529 10.803c-0.001 0.005-0.001 0.012-0.001 0.018 0 0.102 0.083 0.185 0.185 0.185 0.096 0 0.174-0.073 0.184-0.166l0-0.001c0.001-0.005 0.001-0.012 0.001-0.018 0-0.102-0.083-0.185-0.185-0.185-0.096 0-0.174 0.073-0.184 0.166l-0 0.001z"></path>
<path fill="#414042" d="M18.963 14.453c0.421 0.498 0.745 1.092 0.934 1.744l0.008 0.034c0.010 0.033 0.016 0.071 0.016 0.11 0 0.18-0.12 0.333-0.285 0.381l-0.003 0.001h-0.107c-0.18-0.002-0.331-0.123-0.379-0.288l-0.001-0.003c-0.163-0.566-0.43-1.058-0.781-1.476l0.005 0.006c-0.090-0.073-0.146-0.184-0.146-0.308 0-0.219 0.178-0.397 0.397-0.397 0.145 0 0.272 0.078 0.341 0.194l0.001 0.002zM20.083 17.304c0 0.083 0 0.16 0 0.243s0 0.213 0 0.32c-0.013 0.209-0.185 0.373-0.396 0.373-0 0-0 0-0.001 0h0c-0.207-0.015-0.369-0.187-0.369-0.396 0-0.011 0-0.021 0.001-0.032l-0 0.001c0-0.089 0-0.178 0-0.267s0-0.136 0-0.201c-0-0.006-0.001-0.013-0.001-0.021 0-0.22 0.178-0.398 0.398-0.398 0.212 0 0.386 0.166 0.397 0.376l0 0.001zM18.785 10.548c-0.429 0.29-0.771 0.678-1 1.133l-0.008 0.017-0.901-0.439c-0.063-0.033-0.138-0.053-0.217-0.053-0.184 0-0.343 0.105-0.422 0.257l-0.001 0.003-0.456 0.889c-0.163-0.018-0.352-0.029-0.544-0.029-2.857 0-5.173 2.316-5.173 5.173s2.316 5.173 5.173 5.173c2.857 0 5.173-2.316 5.173-5.173 0-1.289-0.471-2.468-1.251-3.374l0.006 0.007 0.462-0.895c0.034-0.064 0.054-0.141 0.054-0.222 0-0.183-0.102-0.342-0.253-0.423l-0.003-0.001-0.966-0.498-0.13-0.065c0.187-0.37 0.457-0.673 0.786-0.895l0.008-0.005c0.264-0.114 0.571-0.181 0.894-0.181 0.283 0 0.554 0.051 0.805 0.144l-0.016-0.005 0.219-0.593c-0.298-0.113-0.643-0.179-1.003-0.179-0.447 0-0.87 0.101-1.248 0.281l0.018-0.008z"></path>
</svg>
<svg id="icon-ADAPTATION" width="32" height="32" viewBox="0 0 32 32" x="96" y="0">
<path fill="#956daf" d="M0 0h32v32h-32v-32z"></path>
<path fill="#414042" d="M22.347 19.781v-8.794h-0.67c-2.726 0-4.148 0.444-5.333 1.333v8.794c1.185-0.895 2.613-1.333 5.333-1.333z"></path>
<path fill="#414042" d="M8.99 20.444v-8.124l-0.693 0.67v8.041h2.003c2.044 0 3.354 0.249 4.385 0.753h0.954c-1.239-1.185-4.006-1.333-6.009-1.333z"></path>
<path fill="#414042" d="M9.653 10.987v8.794h0.67c2.726 0 4.148 0.444 5.333 1.333v-8.794c-1.185-0.895-2.613-1.333-5.333-1.333z"></path>
<path fill="#414042" d="M23.010 12.32v8.124h-0.664c-2.003 0-4.77 0.166-6.009 1.333h0.954c1.031-0.504 2.37-0.753 4.385-0.753h2.027v-8.036z"></path>
</svg>
<svg id="icon-ADVENTURE" width="32" height="32" viewBox="0 0 32 32" x="144" y="0">
<path fill="#e2641f" d="M0 0h32v32h-32v-32z"></path>
<path fill="#414042" d="M16.806 16.812c-0.205 0.21-0.49 0.34-0.806 0.34s-0.601-0.13-0.806-0.339l-0-0c-0.201-0.212-0.325-0.499-0.325-0.815s0.124-0.603 0.325-0.815l-0.001 0.001c0.205-0.21 0.49-0.34 0.806-0.34s0.601 0.13 0.806 0.339l0 0c0.201 0.212 0.325 0.499 0.325 0.815s-0.124 0.603-0.325 0.815l0-0.001zM20.361 11.603v0 0l-3.828 2.163c-0.166-0.044-0.357-0.069-0.553-0.069-0.622 0-1.185 0.253-1.592 0.662l-0 0c-0.408 0.417-0.66 0.989-0.66 1.62 0 0.197 0.025 0.389 0.071 0.571l-0.003-0.016-2.175 3.852 3.799-2.199c0.166 0.044 0.357 0.069 0.553 0.069 0.622 0 1.185-0.253 1.592-0.662l0-0c0.408-0.418 0.659-0.99 0.659-1.621 0-0.196-0.024-0.387-0.070-0.569l0.003 0.016z"></path>
<path fill="#414042" d="M16.539 23.627v-1.108c3.17-0.288 5.67-2.808 5.924-5.962l0.002-0.023h1.061c-0.249 3.777-3.222 6.786-6.959 7.092l-0.027 0.002z"></path>
<path fill="#414042" d="M8.474 16.545h1.079c0.256 3.177 2.756 5.697 5.901 5.983l0.025 0.002v1.090c-3.767-0.298-6.745-3.301-7.003-7.052l-0.001-0.024z"></path>
<path fill="#414042" d="M15.461 8.373v1.108c-3.17 0.288-5.67 2.808-5.924 5.962l-0.002 0.023h-1.061c0.249-3.777 3.222-6.786 6.959-7.092l0.027-0.002z"></path>
<path fill="#414042" d="M23.526 15.455h-1.079c-0.256-3.177-2.756-5.697-5.901-5.983l-0.025-0.002v-1.096c3.769 0.298 6.748 3.304 7.003 7.058l0.001 0.023z"></path>
</svg>
<svg id="icon-ALLAGES" width="32" height="32" viewBox="0 0 32 32" x="192" y="0">
<path fill="#5fbdbc" d="M0 0h32v32h-32v-32z"></path>
<path fill="#414042" d="M19.876 14.738c-0.026-0.001-0.058-0.001-0.089-0.001-0.812 0-1.577 0.2-2.249 0.553l0.027-0.013c0.887 0.395 1.497 1.266 1.505 2.28v4.428h4.527v-4.521c0-1.677-1.659-2.72-3.716-2.72z"></path>
<path fill="#414042" d="M15.135 15.324c-0.052-0.003-0.113-0.004-0.175-0.004-0.967 0-1.849 0.361-2.519 0.956l0.004-0.003c0.882 0.214 1.531 0.985 1.558 1.911l0 0.003v3.799h4.462v-4.207c0-1.499-1.481-2.43-3.319-2.43z"></path>
<path fill="#414042" d="M10.862 16.593c-1.363 0-2.459 0.693-2.459 1.778v3.615h4.919v-3.615c0-1.108-1.096-1.778-2.459-1.778z"></path>
<path fill="#414042" d="M10.862 13.351c-0.746 0-1.351 0.605-1.351 1.351s0.605 1.351 1.351 1.351c0.746 0 1.351-0.605 1.351-1.351v0c0-0.746-0.605-1.351-1.351-1.351v0z"></path>
<path fill="#414042" d="M15.105 11.218c-0.982 0-1.778 0.796-1.778 1.778s0.796 1.778 1.778 1.778c0.982 0 1.778-0.796 1.778-1.778v0c0-0.982-0.796-1.778-1.778-1.778v0z"></path>
<path fill="#414042" d="M19.976 9.914c-1.123 0-2.033 0.91-2.033 2.033s0.91 2.033 2.033 2.033c1.123 0 2.033-0.91 2.033-2.033v0c0-1.123-0.91-2.033-2.033-2.033v0z"></path>
</svg>
<svg id="icon-ALTHISTORY" width="32" height="32" viewBox="0 0 32 32" x="240" y="0">
<path fill="#d18234" d="M0 0h32v32h-32v-32z"></path>
<path fill="#414042" d="M10.074 16.089c0.593-4.569 4.089-5.055 4.575-5.102v-1.185c0-0.001 0-0.002 0-0.003 0-0.262 0.212-0.474 0.474-0.474 0.113 0 0.216 0.039 0.297 0.105l-0.001-0.001 3.265 2.53c0.111 0.088 0.182 0.222 0.182 0.373s-0.071 0.286-0.181 0.373l-0.001 0.001-3.265 2.536c-0.080 0.061-0.181 0.098-0.29 0.098-0.262 0-0.475-0.21-0.48-0.471v-1.132c-1.713 0.036-2.839 1.481-3.484 2.69-0.103 0.182-0.296 0.303-0.517 0.303-0.061 0-0.119-0.009-0.174-0.026l0.004 0.001c-0.238-0.081-0.405-0.302-0.405-0.562 0-0.019 0.001-0.038 0.003-0.056l-0 0.002zM21.926 15.917c0-0.009 0.001-0.020 0.001-0.031 0-0.26-0.167-0.48-0.4-0.56l-0.004-0.001c-0.051-0.016-0.109-0.025-0.17-0.025-0.221 0-0.414 0.121-0.516 0.301l-0.002 0.003c-0.646 1.185-1.778 2.655-3.484 2.69v-1.185c-0.005-0.261-0.218-0.471-0.48-0.471-0.11 0-0.211 0.037-0.292 0.099l0.001-0.001-3.265 2.536c-0.111 0.088-0.182 0.222-0.182 0.373s0.071 0.286 0.181 0.373l0.001 0.001 3.265 2.536c0.080 0.063 0.183 0.101 0.295 0.101 0.076 0 0.148-0.018 0.212-0.049l-0.003 0.001c0.159-0.079 0.267-0.24 0.267-0.426 0-0 0-0 0-0v0-1.185c0.456-0.024 3.982-0.51 4.575-5.079z"></path>
</svg>
<svg id="icon-COMEDY" width="32" height="32" viewBox="0 0 32 32" x="288" y="0">
<path fill="#abd039" d="M0 0h32v32h-32v-32z"></path>
<path fill="#414042" d="M20.148 16.794c-0.335 2.031-2.077 3.561-4.178 3.561s-3.843-1.53-4.174-3.537l-0.003-0.025c-0.001-0.011-0.002-0.023-0.002-0.036 0-0.167 0.135-0.302 0.302-0.302 0.003 0 0.006 0 0.008 0h7.768c0.002-0 0.005-0 0.008-0 0.167 0 0.302 0.135 0.302 0.302 0 0.013-0.001 0.025-0.002 0.037l0-0.001zM12.16 13.476c-0.101-0.052-0.169-0.156-0.169-0.276 0-0.171 0.138-0.309 0.309-0.309 0.051 0 0.099 0.012 0.141 0.034l-0.002-0.001 2.080 1.055c0.103 0.051 0.172 0.156 0.172 0.276 0 0.001 0 0.002 0 0.002v-0c-0.002 0.119-0.070 0.222-0.17 0.272l-0.002 0.001-2.074 1.049c-0.039 0.021-0.086 0.035-0.136 0.036h-0c-0.008 0.001-0.017 0.001-0.026 0.001-0.17 0-0.308-0.138-0.308-0.308 0-0.128 0.079-0.239 0.19-0.285l0.002-0.001 1.535-0.776zM17.428 13.979l2.080-1.055c0.041-0.021 0.089-0.034 0.141-0.034 0.17 0 0.308 0.138 0.308 0.308 0 0.036-0.006 0.070-0.017 0.101l0.001-0.002c-0.027 0.078-0.082 0.141-0.152 0.177l-0.002 0.001-1.535 0.776 1.535 0.776c0.072 0.037 0.127 0.1 0.153 0.176l0.001 0.002c0.015 0.035 0.023 0.076 0.023 0.119s-0.009 0.083-0.024 0.121l0.001-0.002c-0.052 0.101-0.156 0.17-0.275 0.17-0.051 0-0.099-0.012-0.141-0.034l0.002 0.001-2.080-1.055c-0.102-0.050-0.172-0.153-0.172-0.273v0c0-0.001 0-0.001 0-0.002 0-0.121 0.069-0.225 0.17-0.276l0.002-0.001zM16 9.6c-3.535 0-6.4 2.865-6.4 6.4s2.865 6.4 6.4 6.4c3.535 0 6.4-2.865 6.4-6.4v0c0-0.002 0-0.004 0-0.006 0-3.531-2.863-6.394-6.394-6.394-0.002 0-0.004 0-0.006 0h0z"></path>
<path fill="#414042" d="M13.671 19.147c0.638 0.492 1.449 0.788 2.329 0.788s1.691-0.296 2.338-0.795l-0.009 0.007c-0.647-0.465-1.455-0.744-2.329-0.744s-1.682 0.279-2.341 0.752l0.012-0.008z"></path>
</svg>
<svg id="icon-COMINGOFAGE" width="32" height="32" viewBox="0 0 32 32" x="336" y="0">
<path fill="#b998a9" d="M0 0h32v32h-32v-32z"></path>
<path fill="#414042" d="M16 16.919h-0.077l-6.441-1.819v5.233c0.945 0.041 1.838 0.177 2.697 0.399l-0.090-0.020c1.478 0.354 2.776 0.969 3.905 1.799l-0.030-0.021h0.119c1.1-0.809 2.397-1.424 3.802-1.763l0.073-0.015c0.769-0.202 1.662-0.338 2.58-0.378l0.027-0.001v-5.239l-6.489 1.813z"></path>
<path fill="#414042" d="M25.481 16.421v-2.714l0.806-0.225-10.287-2.874-10.258 2.874 10.258 2.868 8.723-2.441h0.166v2.507c-0.316 0.105-0.54 0.398-0.54 0.744 0 0.009 0 0.019 0 0.028l-0-0.001v1.713h1.647v-1.713c0-0.010 0.001-0.021 0.001-0.033 0-0.335-0.213-0.621-0.511-0.73l-0.005-0.002z"></path>
</svg>
<svg id="icon-CONSPIRACY" width="32" height="32" viewBox="0 0 32 32" x="384" y="0">
<path fill="#00b1b7" d="M0 0h32v32h-32v-32z"></path>
<path fill="#414042" d="M16 20.101c-1.79 0-3.241-1.451-3.241-3.241s1.451-3.241 3.241-3.241c1.79 0 3.241 1.451 3.241 3.241v0c0 1.79-1.451 3.241-3.241 3.241v0zM16 12.308c-4.853 0-7.704 4.551-7.704 4.551s2.827 4.551 7.704 4.551 7.704-4.551 7.704-4.551-2.827-4.551-7.704-4.551z"></path>
<path fill="#414042" d="M15.953 18.904c-0.043 0.003-0.092 0.005-0.142 0.005-1.028 0-1.861-0.833-1.861-1.861 0-0.004 0-0.008 0-0.012v0.001c-0.011-0.077-0.017-0.167-0.017-0.257 0-1.087 0.881-1.967 1.967-1.967 0.035 0 0.070 0.001 0.105 0.003l-0.005-0c0.004-0 0.009-0 0.013-0 1.181 0 2.139 0.958 2.139 2.139 0 0.027-0 0.054-0.002 0.081l0-0.004c0 0.332-0.101 0.444-0.219 0.444-0.121 0-0.219-0.098-0.219-0.219v0c0.008-0.064 0.013-0.139 0.013-0.214 0-0.963-0.766-1.748-1.723-1.777l-0.003-0c-0.014-0-0.030-0.001-0.046-0.001-0.88 0-1.594 0.714-1.594 1.594 0 0.065 0.004 0.129 0.011 0.192l-0.001-0.008c-0 0.008-0 0.017-0 0.026 0 0.776 0.629 1.404 1.404 1.404 0.054 0 0.108-0.003 0.161-0.009l-0.006 0.001c0.273-0.013 0.515-0.138 0.68-0.331l0.001-0.001c0.216-0.26 0.347-0.598 0.347-0.966 0-0.090-0.008-0.178-0.023-0.264l0.001 0.009c-0.028-0.437-0.351-0.79-0.771-0.864l-0.006-0.001c-0.057-0.015-0.123-0.023-0.19-0.023-0.289 0-0.541 0.155-0.679 0.387l-0.002 0.004c-0.085 0.148-0.135 0.326-0.135 0.516s0.050 0.367 0.137 0.521l-0.003-0.005c0.108 0.156 0.286 0.257 0.488 0.257 0.016 0 0.032-0.001 0.047-0.002l-0.002 0c0.005 0 0.011 0 0.018 0 0.203 0 0.374-0.14 0.42-0.329l0.001-0.003c0.014-0.048 0.022-0.104 0.022-0.161 0-0.126-0.039-0.243-0.106-0.339l0.001 0.002c-0.113-0.041-0.207-0.041-0.249 0-0.016 0.023-0.025 0.052-0.025 0.083s0.009 0.060 0.026 0.083l-0-0c0.018 0.032 0.029 0.069 0.029 0.11 0 0.122-0.099 0.222-0.222 0.222-0.082 0-0.154-0.045-0.192-0.111l-0.001-0.001c-0.047-0.083-0.075-0.182-0.075-0.288 0-0.143 0.051-0.274 0.135-0.376l-0.001 0.001c0.178-0.249 0.444-0.243 0.747-0.124s0.421 0.409 0.367 0.913c-0.015 0.43-0.367 0.773-0.8 0.773-0.021 0-0.042-0.001-0.062-0.002l0.003 0c-0.019 0.001-0.042 0.002-0.065 0.002-0.357 0-0.673-0.177-0.864-0.449l-0.002-0.003c-0.146-0.205-0.234-0.461-0.234-0.738s0.088-0.532 0.237-0.742l-0.003 0.004c0.224-0.373 0.626-0.619 1.086-0.619 0.092 0 0.181 0.010 0.267 0.028l-0.008-0.002c0.62 0.112 1.091 0.626 1.137 1.258l0 0.005c0.016 0.093 0.025 0.201 0.025 0.31 0 0.441-0.15 0.847-0.402 1.17l0.003-0.004c-0.255 0.322-0.645 0.529-1.084 0.533h-0.001z"></path>
</svg>
<svg id="icon-CRIME" width="32" height="32" viewBox="0 0 32 32" x="432" y="0">
<path fill="#fbb040" d="M0 0h32v32h-32v-32z"></path>
<path fill="#414042" d="M17.339 12.913v0c-0.004-0-0.008-0-0.012-0-0.285 0-0.524 0.202-0.58 0.47l-0.001 0.004-0.225 1.239c-0.246 0.179-0.461 0.373-0.654 0.589l-0.003 0.004c0.378 0.292 0.699 0.637 0.956 1.027l0.010 0.016c0.537-0.684 1.365-1.12 2.294-1.12 0.004 0 0.008 0 0.012 0h-0.001c0.014-0 0.031-0 0.048-0 1.548 0 2.806 1.242 2.832 2.783l0 0.002c-0.002 0.773-0.324 1.47-0.841 1.967l-0.001 0.001c-0.53 0.504-1.249 0.814-2.040 0.814-0.591 0-1.142-0.173-1.604-0.471l0.012 0.007c-0.046 0.232-0.101 0.431-0.169 0.623l0.009-0.030c-0.098 0.281-0.206 0.52-0.332 0.747l0.012-0.024c0.604 0.328 1.322 0.521 2.086 0.521h0c0.012 0 0.026 0 0.041 0 1.857 0 3.439-1.174 4.044-2.821l0.010-0.030c0.139-0.395 0.22-0.85 0.22-1.324 0-1.369-0.671-2.581-1.701-3.326l-0.012-0.008-0.219-1.233c-0.055-0.275-0.294-0.48-0.582-0.48-0.004 0-0.008 0-0.011 0h0.001zM19.17 13.63v0c0.002-0 0.004-0 0.006-0 0.157 0 0.284 0.127 0.284 0.284 0 0.002-0 0.004-0 0.006v-0 0.302c0 0.164-0.133 0.296-0.296 0.296s-0.296-0.133-0.296-0.296v0-0.296c0-0 0-0 0-0 0-0.158 0.127-0.287 0.284-0.29h0z"></path>
<path fill="#414042" d="M11.010 14.353v0c-0.004-0-0.008-0-0.012-0-0.285 0-0.524 0.202-0.58 0.47l-0.001 0.004-0.225 1.239c-1.027 0.753-1.686 1.955-1.686 3.311 0 0.489 0.086 0.958 0.243 1.393l-0.009-0.029c0.638 1.676 2.231 2.846 4.098 2.846s3.46-1.169 4.088-2.816l0.010-0.030c0.14-0.395 0.221-0.851 0.221-1.326 0-1.368-0.671-2.58-1.702-3.323l-0.012-0.008-0.219-1.268c-0.055-0.275-0.294-0.48-0.582-0.48-0.004 0-0.008 0-0.011 0h0.001zM12.83 15.046v0c0.16 0 0.29 0.13 0.29 0.29v0 0.279c0 0.164-0.133 0.296-0.296 0.296s-0.296-0.133-0.296-0.296v0-0.279c0-0 0-0 0-0 0-0.158 0.127-0.287 0.284-0.29h0zM12.812 16.61v0c0.014-0 0.031-0 0.048-0 1.548 0 2.806 1.242 2.832 2.783l0 0.002c-0.005 0.774-0.328 1.471-0.846 1.966l-0.001 0.001c-0.53 0.503-1.248 0.813-2.039 0.813s-1.509-0.309-2.040-0.814l0.001 0.001c-0.52-0.497-0.844-1.194-0.847-1.967v-0.001c0.016-1.552 1.278-2.804 2.832-2.804 0.029 0 0.058 0 0.087 0.001l-0.004-0z"></path>
<path fill="#414042" d="M15.538 8.427c-0.555 0.003-1.004 0.452-1.007 1.007v0c-0.001 0.014-0.002 0.031-0.002 0.047s0.001 0.033 0.002 0.050l-0-0.002c-0.301 0.157-0.56 0.343-0.79 0.559l0.002-0.002c-0.112-0.049-0.242-0.077-0.379-0.077-0 0-0 0-0 0v0c-0.549 0.006-0.991 0.452-0.991 1.001 0 0.312 0.143 0.591 0.367 0.775l0.002 0.001c-0.061 0.243-0.096 0.522-0.096 0.808 0 0.028 0 0.056 0.001 0.085l-0-0.004c-0.108 0.015-0.206 0.049-0.295 0.097l0.004-0.002c-0.261 0.154-0.433 0.433-0.433 0.753v0 0.427h0.593v-0.433c0-0.001 0-0.001 0-0.002 0-0.108 0.059-0.202 0.147-0.252l0.001-0.001c0.041-0.025 0.092-0.040 0.145-0.040s0.104 0.015 0.146 0.041l-0.001-0.001c0.086 0.053 0.142 0.146 0.142 0.253 0 0.001 0 0.001 0 0.002v-0 0.421h0.593v-0.421c0-0.003 0-0.007 0-0.010 0-0.314-0.167-0.588-0.417-0.74l-0.004-0.002c-0.005-0.065-0.008-0.141-0.008-0.218 0-0.2 0.020-0.395 0.059-0.583l-0.003 0.019h0.083c0.541-0.019 0.973-0.463 0.973-1.007 0-0.195-0.056-0.378-0.152-0.532l0.002 0.004c0.163-0.144 0.345-0.272 0.542-0.378l0.015-0.008c0.183 0.23 0.462 0.377 0.776 0.379h0c0.437-0.004 0.808-0.284 0.946-0.674l0.002-0.007c0.191 0.026 0.361 0.065 0.525 0.118l-0.021-0.006c-0.001 0.020-0.002 0.044-0.002 0.068s0.001 0.048 0.002 0.071l-0-0.003c0.003 0.555 0.452 1.004 1.007 1.007h0c0.165-0.002 0.32-0.043 0.456-0.115l-0.005 0.003c0.082 0.111 0.16 0.237 0.229 0.369l0.008 0.016c-0.243 0.155-0.402 0.423-0.403 0.729v0.427h0.593v-0.433c0.002-0.106 0.060-0.199 0.147-0.248l0.001-0.001c0.041-0.026 0.091-0.041 0.145-0.041s0.104 0.015 0.146 0.042l-0.001-0.001c0.086 0.053 0.142 0.146 0.142 0.253 0 0.001 0 0.001 0 0.002v-0 0.427h0.593v-0.415c-0.008-0.342-0.212-0.634-0.504-0.768l-0.005-0.002c-0.092-0.054-0.2-0.092-0.316-0.106l-0.004-0c-0.116-0.256-0.249-0.476-0.403-0.678l0.006 0.009c0.085-0.143 0.135-0.314 0.136-0.498v-0c-0.003-0.555-0.452-1.004-1.007-1.007h-0c-0.294 0.001-0.558 0.129-0.74 0.331l-0.001 0.001c-0.213-0.076-0.462-0.135-0.719-0.164l-0.016-0.001c-0.121-0.432-0.509-0.744-0.972-0.747h-0zM15.538 9.019c0.239 0 0.433 0.194 0.433 0.433s-0.194 0.433-0.433 0.433c-0.239 0-0.433-0.194-0.433-0.433v0c-0-0.002-0-0.004-0-0.006 0-0.236 0.191-0.427 0.427-0.427 0.002 0 0.004 0 0.006 0h-0zM17.985 9.612c0.239 0 0.433 0.194 0.433 0.433s-0.194 0.433-0.433 0.433c-0.239 0-0.433-0.194-0.433-0.433v0c-0-0.002-0-0.004-0-0.006 0-0.236 0.191-0.427 0.427-0.427 0.002 0 0.004 0 0.006 0h-0zM13.375 10.619c0.239 0 0.433 0.194 0.433 0.433s-0.194 0.433-0.433 0.433c-0.239 0-0.433-0.194-0.433-0.433v0c-0-0.002-0-0.004-0-0.006 0-0.236 0.191-0.427 0.427-0.427 0.002 0 0.004 0 0.006 0h-0z"></path>
</svg>
<svg id="icon-DRAMA" width="32" height="32" viewBox="0 0 32 32" x="480" y="0">
<path fill="#98b6e0" d="M0 0h32v32h-32v-32z"></path>
<path fill="#414042" d="M11.407 16.877c-0.067 0.070-0.161 0.113-0.265 0.113-0.203 0-0.367-0.165-0.367-0.367 0-0.061 0.015-0.118 0.041-0.168l-0.001 0.002c0.131-0.183 0.3-0.331 0.496-0.435l0.008-0.004c0.189-0.1 0.412-0.158 0.65-0.158 0.487 0 0.917 0.246 1.172 0.621l0.003 0.005c0.019 0.042 0.029 0.092 0.029 0.144 0 0.203-0.165 0.367-0.367 0.367-0.099 0-0.189-0.039-0.255-0.103l0 0c-0.062-0.092-0.144-0.166-0.239-0.218l-0.004-0.002c-0.092-0.048-0.201-0.077-0.317-0.077s-0.225 0.028-0.321 0.079l0.004-0.002c-0.098 0.052-0.18 0.124-0.242 0.211l-0.001 0.002z"></path>
<path fill="#414042" d="M14.471 16.877c-0.067 0.070-0.161 0.113-0.265 0.113-0.203 0-0.367-0.165-0.367-0.367 0-0.061 0.015-0.118 0.041-0.168l-0.001 0.002c0.131-0.183 0.3-0.331 0.496-0.435l0.008-0.004c0.189-0.1 0.412-0.158 0.65-0.158 0.487 0 0.917 0.246 1.172 0.621l0.003 0.005c0.019 0.042 0.029 0.092 0.029 0.144 0 0.203-0.165 0.367-0.367 0.367-0.099 0-0.189-0.039-0.255-0.103l0 0c-0.062-0.092-0.144-0.166-0.239-0.218l-0.004-0.002c-0.092-0.049-0.201-0.077-0.317-0.077s-0.225 0.029-0.321 0.079l0.004-0.002c-0.099 0.051-0.18 0.124-0.242 0.211l-0.001 0.002z"></path>
<path fill="#414042" d="M16.184 19.253c-0.598 0.865-1.585 1.426-2.702 1.428h-0c-0.547-0.004-1.059-0.148-1.503-0.399l0.015 0.008c-0.478-0.265-0.875-0.622-1.178-1.050l-0.007-0.011c-0.048-0.062-0.077-0.14-0.077-0.225 0-0.203 0.165-0.367 0.367-0.367 0.004 0 0.008 0 0.013 0l-0.001-0h4.788c0.203 0 0.367 0.165 0.367 0.367v0c0 0.005 0 0.012 0 0.018 0 0.088-0.032 0.169-0.084 0.232l0-0.001z"></path>
<path fill="#414042" d="M23.076 9.025c-0.061-0.046-0.139-0.074-0.223-0.074-0.043 0-0.085 0.007-0.124 0.021l0.003-0.001c-1.205 0.411-2.592 0.648-4.036 0.648s-2.831-0.237-4.126-0.674l0.091 0.027c-0.034-0.011-0.072-0.017-0.113-0.017-0.209 0-0.379 0.169-0.379 0.379v2.963c-0.152 0.006-0.33 0.010-0.508 0.010-1.495 0-2.932-0.246-4.273-0.701l0.094 0.028c-0.034-0.011-0.072-0.017-0.113-0.017-0.209 0-0.379 0.169-0.379 0.379v6.519c-0 0.005-0 0.012-0 0.018 0 2.5 2.027 4.527 4.527 4.527 1.876 0 3.486-1.141 4.173-2.767l0.011-0.030c0.306 0.074 0.658 0.116 1.019 0.116 2.503 0 4.532-2.028 4.533-4.531v-6.519c0-0.001 0-0.003 0-0.005 0-0.125-0.063-0.236-0.159-0.303l-0.001-0.001zM17.298 18.507c0 2.096-1.699 3.796-3.796 3.796s-3.796-1.699-3.796-3.796v0-6.062c1.137 0.344 2.443 0.541 3.796 0.541s2.659-0.198 3.892-0.566l-0.096 0.025zM20.628 16.8c-0.067 0.096-0.178 0.159-0.302 0.159-0.077 0-0.149-0.024-0.208-0.065l0.001 0.001c-0.402-0.278-0.899-0.444-1.436-0.444-0.001 0-0.003 0-0.004 0h0c-0.23 0-0.452 0.030-0.664 0.087l0.018-0.004v-0.735c0.193-0.041 0.415-0.065 0.643-0.065 0.001 0 0.002 0 0.003 0h-0c0.695 0.005 1.338 0.226 1.865 0.599l-0.010-0.007c0.098 0.066 0.161 0.176 0.161 0.301 0 0.078-0.025 0.151-0.067 0.21l0.001-0.001zM21.404 13.63c-0.256 0.382-0.687 0.63-1.175 0.63-0.475 0-0.896-0.235-1.151-0.596l-0.003-0.004c-0.063-0.066-0.102-0.156-0.102-0.255 0-0.203 0.165-0.367 0.367-0.367 0.142 0 0.266 0.081 0.327 0.199l0.001 0.002c0.063 0.089 0.144 0.161 0.239 0.212l0.004 0.002c0.092 0.049 0.201 0.077 0.317 0.077s0.225-0.029 0.321-0.079l-0.004 0.002c0.099-0.053 0.181-0.127 0.241-0.217l0.002-0.002c0.066-0.063 0.156-0.102 0.255-0.102 0.203 0 0.367 0.165 0.367 0.367 0 0.052-0.011 0.101-0.030 0.146l0.001-0.002z"></path>
</svg>
<svg id="icon-FACTUAL" width="32" height="32" viewBox="0 0 32 32" x="528" y="0">
<path fill="#3382c4" d="M0 0h32v32h-32v-32z"></path>
<path fill="#414042" d="M16.302 9.114c0.142 0 0.29 0 0.444 0 1.133 0.002 2.195 0.303 3.112 0.828l-0.031-0.016c1.861 1.041 3.098 2.999 3.098 5.246 0 1.125-0.31 2.178-0.85 3.077l0.015-0.027c-1.123 1.815-3.102 3.006-5.36 3.006-1.141 0-2.211-0.304-3.133-0.836l0.030 0.016c-1.861-1.044-3.098-3.004-3.098-5.253 0-1.122 0.308-2.172 0.844-3.070l-0.015 0.027c1.042-1.708 2.844-2.864 4.924-2.998l0.018-0.001z"></path>
<path fill="#414042" d="M12.77 8.030c0.086-0.051 0.189-0.081 0.299-0.081 0.259 0 0.478 0.166 0.559 0.397l0.001 0.004c0.011 0.043 0.018 0.093 0.018 0.145 0 0.218-0.118 0.409-0.294 0.512l-0.003 0.002c-2.187 1.23-3.664 3.495-3.768 6.113l-0 0.014c0.008 1.234 0.357 2.385 0.958 3.365l-0.016-0.028c1.309 2.089 3.598 3.457 6.207 3.457 0.068 0 0.135-0.001 0.203-0.003l-0.010 0c1.241-0.010 2.406-0.331 3.421-0.89l-0.037 0.019c0.089-0.057 0.198-0.090 0.314-0.090 0.211 0 0.397 0.111 0.502 0.277l0.001 0.002c0.041 0.079 0.066 0.172 0.066 0.271 0 0.221-0.121 0.413-0.3 0.515l-0.003 0.002c-0.976 0.552-2.129 0.913-3.358 1l-0.026 0.001v0.776h1.742c0.053-0.017 0.113-0.027 0.176-0.027 0.327 0 0.593 0.265 0.593 0.593s-0.265 0.593-0.593 0.593c-0.063 0-0.123-0.010-0.18-0.028l0.004 0.001h-4.64c-0.053 0.017-0.113 0.027-0.176 0.027-0.327 0-0.593-0.265-0.593-0.593s0.265-0.593 0.593-0.593c0.063 0 0.123 0.010 0.18 0.028l-0.004-0.001h1.742v-0.759c-2.889-0.117-5.39-1.677-6.812-3.976l-0.021-0.036c-0.679-1.115-1.085-2.462-1.096-3.902l-0-0.003c0.098-3.054 1.81-5.687 4.307-7.083l0.043-0.022z"></path>
</svg>
<svg id="icon-FANTASY" width="32" height="32" viewBox="0 0 32 32" x="576" y="0">
<path fill="#717ebd" d="M0 0h32v32h-32v-32z"></path>
<path fill="#414042" d="M9.837 14.323l0.753-0.101c-0.047-0.178-0.154-0.302-0.29-0.296-0.261 0-0.344 0.231-0.462 0.379zM13.393 12.753c0.632-0.165 1.186-0.409 1.69-0.726l-0.025 0.015c-0.178-0.089-0.308-0.166-0.444-0.225-0.095-0.057-0.21-0.091-0.333-0.091-0.292 0-0.539 0.19-0.625 0.453l-0.001 0.005c0 0.041-0.041 0.089-0.059 0.136l-0.196 0.433zM22.821 19.864c-0.047 0.29-0.089 0.593-0.154 0.871-0.252 0.98-0.626 1.84-1.113 2.623l0.023-0.040c-0.107 0.248-0.35 0.419-0.633 0.419-0.026 0-0.051-0.001-0.076-0.004l0.003 0c-3.022-0.030-6.027-0.030-9.019-0.030h-0.148c0.071-0.095 0.124-0.172 0.184-0.249 0.72-0.852 1.511-1.606 2.376-2.267l0.036-0.027c0.907-0.741 1.819-1.476 2.696-2.246 0.352-0.341 0.67-0.713 0.95-1.113l0.016-0.025c0.185-0.208 0.297-0.483 0.297-0.785 0-0.203-0.051-0.393-0.141-0.56l0.003 0.006c-0.103-0.158-0.213-0.295-0.333-0.422l0.001 0.001c0.517-0.48 0.966-1.023 1.338-1.62l0.019-0.033-0.041-0.036c-0.089 0.077-0.178 0.154-0.261 0.237-0.379 0.391-0.747 0.788-1.132 1.185-0.19 0.216-0.454 0.362-0.753 0.397l-0.006 0.001c-0.195-0.002-0.382-0.032-0.559-0.087l0.014 0.004c-0.29-0.065-0.593-0.178-0.859-0.213-0.051-0.004-0.11-0.007-0.17-0.007-0.372 0-0.722 0.097-1.025 0.267l0.011-0.005c-0.587 0.268-1.093 0.597-1.542 0.99l0.007-0.006c-0.446 0.419-1.045 0.679-1.705 0.687h-0.002c-0.296 0-0.593 0.047-0.883 0-0.276-0.055-0.513-0.197-0.686-0.396l-0.001-0.001c0.243 0 0.456-0.041 0.664-0.077 0.672-0.148 1.255-0.46 1.727-0.891l-0.003 0.003c0.474-0.391 0.93-0.806 1.41-1.185 0.455-0.323 0.974-0.607 1.525-0.829l0.051-0.018 0.201-0.101c-0.163-0.197-0.399-0.33-0.666-0.355l-0.004-0c-0.032-0.002-0.070-0.002-0.107-0.002-0.2 0-0.393 0.025-0.579 0.071l0.016-0.003c-0.777 0.171-1.45 0.54-1.987 1.050l0.002-0.002c-0.267 0.28-0.599 0.496-0.973 0.623l-0.017 0.005c-0.081 0.030-0.15 0.062-0.215 0.099l0.008-0.004c-0.146 0.064-0.246 0.208-0.246 0.375 0 0.031 0.003 0.061 0.010 0.090l-0.001-0.003c0 0.107 0 0.213 0.036 0.356-0.269-0.1-0.474-0.316-0.555-0.586l-0.002-0.006c-0.213 0.030-0.433 0.053-0.646 0.095s-0.261 0.13-0.225 0.338c0 0.077 0 0.154 0 0.255-0.172-0.055-0.298-0.207-0.314-0.389l-0-0.002c-0.010-0.112-0.085-0.203-0.188-0.236l-0.002-0.001c-0.266-0.12-0.448-0.383-0.448-0.688 0-0.025 0.001-0.049 0.004-0.073l-0 0.003c0.006-0.39 0.104-0.757 0.273-1.080l-0.006 0.013c0.085-0.206 0.284-0.347 0.516-0.347 0.115 0 0.221 0.035 0.31 0.094l-0.002-0.001c0.078 0.055 0.174 0.088 0.279 0.088s0.201-0.033 0.28-0.089l-0.002 0.001c0.123-0.091 0.232-0.18 0.334-0.275l-0.003 0.002c0.085-0.092 0.206-0.149 0.34-0.149 0.075 0 0.146 0.018 0.208 0.049l-0.003-0.001c0.035 0.015 0.077 0.024 0.12 0.024 0.079 0 0.151-0.029 0.206-0.077l-0 0c0.451-0.292 0.827-0.658 1.123-1.083l0.009-0.013c0.267-0.361 0.527-0.735 0.782-1.102 0.032-0.045 0.053-0.1 0.059-0.159l0-0.001c0.009-0.728 0.564-1.324 1.274-1.398l0.006-0.001c0.124-0.018 0.267-0.028 0.413-0.028 0.41 0 0.802 0.080 1.161 0.225l-0.021-0.007c0.059 0.024 0.128 0.039 0.2 0.039 0.154 0 0.294-0.065 0.392-0.169l0-0c0.796-0.731 1.78-1.27 2.87-1.537l0.045-0.009h0.124c-0.367 0.255-0.729 0.492-1.073 0.747-0.344 0.269-0.631 0.593-0.851 0.962l-0.009 0.016c0.213 0 0.397 0.059 0.593 0.077 0.050-0.005 0.094-0.029 0.124-0.065l0-0c0.639-0.66 1.436-1.163 2.331-1.447l0.040-0.011c0.211-0.076 0.46-0.136 0.716-0.17l0.019-0.002c-0.88 0.464-1.611 1.101-2.168 1.872l-0.012 0.018c0.29 0.089 0.593 0.16 0.824 0.249 0.832 0.277 1.554 0.651 2.205 1.119l-0.024-0.017c0.216 0.175 0.409 0.355 0.59 0.548l0.003 0.003c0.037 0.043 0.070 0.092 0.099 0.144l0.002 0.004v0.030c-0.129-0.093-0.277-0.184-0.431-0.263l-0.020-0.009c-0.155-0.063-0.334-0.105-0.522-0.118l-0.006-0c1.055 1.243 1.794 2.787 2.073 4.485l0.007 0.054c0.114 0.512 0.18 1.1 0.18 1.703 0 1.162-0.243 2.267-0.68 3.268l0.020-0.053h-0.119c-0.003-0.041-0.004-0.088-0.004-0.136s0.001-0.096 0.004-0.143l-0 0.006c0.001-0.022 0.001-0.049 0.001-0.075 0-0.342-0.075-0.667-0.209-0.958l0.006 0.014c-0.060-0.114-0.121-0.211-0.188-0.303l0.005 0.007h-0.047z"></path>
</svg>
<svg id="icon-HORROR" width="32" height="32" viewBox="0 0 32 32" x="624" y="0">
<path fill="#f04e3e" d="M0 0h32v32h-32v-32z"></path>
<path fill="#414042" d="M19.443 18.578c-0.244 0.134-0.534 0.212-0.842 0.212-0.647 0-1.213-0.345-1.524-0.862l-0.004-0.008c-0.26-0.303-0.419-0.699-0.419-1.133 0-0.517 0.225-0.982 0.583-1.301l0.002-0.002c0.243-0.133 0.532-0.211 0.839-0.211 0.649 0 1.216 0.347 1.527 0.866l0.005 0.008c0.262 0.302 0.421 0.699 0.421 1.134 0 0.517-0.226 0.982-0.585 1.3l-0.002 0.002zM16.664 19.769h-1.333c-0.001 0-0.002 0-0.003 0-0.082 0-0.148-0.066-0.148-0.148 0-0.024 0.006-0.046 0.016-0.066l-0 0.001 0.717-1.428c0.015-0.033 0.048-0.055 0.086-0.055s0.070 0.022 0.086 0.054l0 0.001 0.717 1.428c0.010 0.019 0.015 0.041 0.015 0.065 0 0.082-0.066 0.148-0.148 0.148-0.001 0-0.002 0-0.003-0h0zM12.551 18.584c-0.361-0.32-0.587-0.784-0.587-1.302 0-0.434 0.16-0.832 0.423-1.136l-0.002 0.002c0.315-0.527 0.882-0.874 1.531-0.874 0.307 0 0.596 0.078 0.849 0.215l-0.009-0.005c0.36 0.321 0.585 0.785 0.585 1.302 0 0.434-0.159 0.831-0.421 1.136l0.002-0.002c-0.316 0.524-0.882 0.87-1.528 0.87-0.308 0-0.598-0.079-0.851-0.217l0.009 0.005zM22.353 15.022c0-0.011 0-0.024 0-0.037 0-3.512-2.847-6.359-6.359-6.359s-6.359 2.847-6.359 6.359c0 1.634 0.616 3.124 1.629 4.25l-0.005-0.006c-0.048 0.119-0.076 0.258-0.077 0.402v0.001c0 0.764 0.776 1.387 1.742 1.416l0.255 1.855c0.030 0.225 0.314 0.397 0.646 0.397h4.391c0.338 0 0.593-0.172 0.646-0.397l0.255-1.855c0.966-0.030 1.742-0.652 1.742-1.416-0.001-0.145-0.029-0.284-0.080-0.411l0.003 0.008c0.989-1.107 1.594-2.576 1.594-4.186 0-0.001 0-0.003 0-0.004v0z"></path>
</svg>
<svg id="icon-KIDS" width="32" height="32" viewBox="0 0 32 32" x="672" y="0">
<path fill="#00aeef" d="M0 0h32v32h-32v-32z"></path>
<path fill="#414042" d="M13.357 12.99c0.026 0.143 0.059 0.266 0.1 0.386l-0.005-0.018c0.031 0.074 0.087 0.132 0.158 0.165l0.002 0.001c0.037 0.015 0.081 0.024 0.126 0.024 0.126 0 0.236-0.069 0.294-0.171l0.001-0.002c0.050-0.074 0.097-0.16 0.138-0.25l0.005-0.011c0.077-0.166 0.148-0.338 0.213-0.51 0.31-0.799 0.832-1.459 1.498-1.929l0.013-0.009 0.593-0.403 0.776-0.516c0.028-0.015 0.051-0.037 0.065-0.064l0-0.001c0.006-0.025 0.010-0.053 0.010-0.082 0-0.157-0.102-0.291-0.244-0.338l-0.003-0.001c-0.073-0.024-0.156-0.037-0.243-0.037s-0.17 0.014-0.249 0.039l0.006-0.002c-0.249 0.077-0.504 0.154-0.747 0.249-0.878 0.334-1.581 0.96-2.005 1.758l-0.010 0.020c-0.267 0.498-0.442 1.083-0.485 1.705l-0.001 0.014zM16.249 21.926l0.344 1.458-1.896-0.865 1.132-0.735-0.077-0.053c-0.142-0.089-0.279-0.19-0.427-0.273-0.362-0.219-0.671-0.483-0.932-0.789l-0.004-0.005c-1.199-1.293-2.014-2.958-2.253-4.804l-0.005-0.044c-0.049-0.317-0.078-0.683-0.078-1.056 0-1.433 0.418-2.769 1.138-3.892l-0.017 0.029c0.787-1.28 2.040-2.208 3.518-2.553l0.038-0.007c0.412-0.096 0.884-0.151 1.369-0.151 0.664 0 1.304 0.103 1.905 0.293l-0.045-0.012c0.864 0.259 1.601 0.726 2.178 1.342l0.003 0.003c1.183 1.18 1.914 2.812 1.914 4.614 0 0.013-0 0.026-0 0.040v-0.002c0 0.007 0 0.015 0 0.024 0 0.96-0.241 1.865-0.667 2.655l0.015-0.030c-1.047 2.067-2.817 3.64-4.969 4.407l-0.062 0.019c-0.602 0.217-1.297 0.348-2.021 0.361l-0.006 0h-0.083z"></path>
<path fill="#414042" d="M8.782 14.477v0c-0.008-0.131-0.013-0.284-0.013-0.439s0.005-0.307 0.014-0.459l-0.001 0.021c0.076-0.468 0.26-0.884 0.526-1.233l-0.005 0.007c0.083-0.119 0.166-0.231 0.243-0.35 0.063-0.093 0.101-0.208 0.101-0.331 0-0.009-0-0.017-0.001-0.025l0 0.001c-0.014-0.122-0.117-0.216-0.241-0.216-0.035 0-0.068 0.007-0.098 0.021l0.002-0.001c-0.182 0.106-0.339 0.223-0.481 0.357l0.001-0.001c-0.557 0.548-0.917 1.294-0.966 2.124l-0 0.009c-0.005 0.055-0.009 0.118-0.009 0.183 0 0.52 0.204 0.992 0.537 1.341l-0.001-0.001c0.021 0.027 0.050 0.047 0.082 0.059l0.001 0c0.013 0.002 0.028 0.003 0.043 0.003 0.141 0 0.258-0.107 0.271-0.245l0-0.001c0-0.273 0-0.539 0-0.812zM13.25 9.481l-0.030 0.053c-0.166 0.207-0.344 0.409-0.504 0.628-0.93 1.258-1.489 2.84-1.489 4.552 0 0.244 0.011 0.485 0.033 0.723l-0.002-0.030c0.108 1.448 0.534 2.777 1.209 3.944l-0.024-0.044c0.336 0.608 0.683 1.13 1.068 1.62l-0.019-0.026 0.083 0.113c-0.178 0-0.338 0-0.492-0.041-1.161-0.188-2.184-0.674-3.020-1.377l0.009 0.008c-1.167-0.89-2.047-2.102-2.51-3.504l-0.015-0.051c-0.174-0.498-0.275-1.072-0.275-1.669 0-0.748 0.158-1.46 0.442-2.103l-0.013 0.033c0.322-0.71 0.802-1.299 1.398-1.74l0.012-0.008c0.523-0.403 1.127-0.738 1.779-0.975l0.047-0.015c0.223-0.068 0.496-0.128 0.774-0.168l0.031-0.004c0.167-0.030 0.359-0.047 0.555-0.047 0.326 0 0.641 0.048 0.938 0.136l-0.023-0.006h0.041z"></path>
<path fill="#414042" d="M12.492 24.427c-0.107-0.001-0.194-0.088-0.194-0.196 0-0.045 0.015-0.086 0.040-0.119l-0 0c0.272-0.31 0.669-0.505 1.111-0.505 0.125 0 0.247 0.016 0.363 0.045l-0.010-0.002c0.1 0.014 0.216 0.021 0.334 0.021 0.229 0 0.451-0.029 0.662-0.085l-0.018 0.004c0.8-0.243 0.93-1.369 0.93-1.381-0-0.002-0-0.004-0-0.006 0-0.108 0.088-0.196 0.196-0.196s0.196 0.088 0.196 0.196c0 0.017-0.002 0.033-0.006 0.049l0-0.001c-0.035 0.269-0.104 0.513-0.202 0.741l0.007-0.018c-0.173 0.466-0.538 0.825-0.996 0.986l-0.011 0.004c-0.223 0.061-0.478 0.096-0.742 0.096-0.133 0-0.264-0.009-0.393-0.026l0.015 0.002c-0.48-0.036-0.83-0.059-1.132 0.32-0.036 0.044-0.090 0.071-0.151 0.071-0.001 0-0.002 0-0.003-0h0z"></path>
</svg>
<svg id="icon-MILITARY" width="32" height="32" viewBox="0 0 32 32" x="720" y="0">
<path fill="#bfbb98" d="M0 0h32v32h-32v-32z"></path>
<path fill="#414042" d="M19.241 14.815h-10.945c-1.129 0.013-2.039 0.931-2.039 2.062 0 0.006 0 0.013 0 0.019v-0.001 1.606c-0 0.004-0 0.008-0 0.012 0 0.628 0.505 1.137 1.131 1.144h0.255c0.437-1.048 1.452-1.773 2.636-1.778h10.347c1.163 0.015 2.157 0.72 2.594 1.724l0.007 0.018c0.593-0.101 1.493-0.409 1.458-1.185-0.053-0.942-2.299-3.621-5.446-3.621z"></path>
<path fill="#414042" d="M11.911 14.163h6.459c0.818 0 1.481-0.663 1.481-1.481s-0.663-1.481-1.481-1.481v0h-1.375v-0.421c0-0.002 0-0.004 0-0.006 0-0.249-0.202-0.45-0.45-0.45 0 0-0 0-0 0h-2.584c0 0-0 0-0 0-0.249 0-0.45 0.202-0.45 0.45 0 0.002 0 0.004 0 0.006v-0 0.421h-1.6c-0.818 0-1.481 0.663-1.481 1.481s0.663 1.481 1.481 1.481v0z"></path>
<path fill="#414042" d="M20.741 21.884c-0.005 0-0.012 0-0.018 0-0.592 0-1.073-0.48-1.073-1.073s0.48-1.073 1.073-1.073c0.592 0 1.073 0.48 1.073 1.072v0c0 0.002 0 0.004 0 0.006 0 0.585-0.471 1.060-1.054 1.067h-0.001zM17.233 21.884c-0.005 0-0.012 0-0.018 0-0.592 0-1.073-0.48-1.073-1.073s0.48-1.073 1.073-1.073c0.592 0 1.073 0.48 1.073 1.072v0c0 0.002 0 0.004 0 0.007 0 0.589-0.478 1.067-1.067 1.067-0.012 0-0.025-0-0.037-0.001l0.002 0zM13.677 21.884c-0.005 0-0.012 0-0.018 0-0.592 0-1.073-0.48-1.073-1.073s0.48-1.073 1.073-1.073c0.592 0 1.072 0.48 1.073 1.072v0c0 0.002 0 0.004 0 0.006 0 0.585-0.471 1.060-1.054 1.067h-0.001zM10.169 21.884c-0.585-0.010-1.055-0.486-1.055-1.072 0-0.592 0.48-1.073 1.073-1.073 0.59 0 1.069 0.477 1.073 1.066v0c0 0.002 0 0.004 0 0.006 0 0.585-0.471 1.060-1.054 1.067h-0.001zM20.64 18.43h-10.376c-1.309 0-2.37 1.061-2.37 2.37s1.061 2.37 2.37 2.37v0h10.364c1.309 0 2.37-1.061 2.37-2.37s-1.061-2.37-2.37-2.37v0z"></path>
<path fill="#414042" d="M24.296 11.425v0.563h-3.994v1.399h3.994v0.569h2.341v-2.53h-2.341z"></path>
</svg>
<svg id="icon-MONSTER" width="32" height="32" viewBox="0 0 32 32" x="0" y="48">
<path fill="#3eb660" d="M0 0h32v32h-32v-32z"></path>
<path fill="#414042" d="M23.585 12.083c0-0.053 0-0.113 0-0.16v-0.231l-0.041-0.124c-0.154-0.355-0.373-0.655-0.644-0.899l-0.002-0.002c-0.212-0.211-0.456-0.391-0.724-0.531l-0.017-0.008c-0.201-0.102-0.375-0.223-0.529-0.363l0.002 0.002c-0.125-0.13-0.221-0.289-0.276-0.466l-0.002-0.008c-0.079-0.261-0.125-0.562-0.125-0.873 0-0.024 0-0.049 0.001-0.073l-0 0.004c0-0.243 0-0.379 0-0.379s-0.047 0.13-0.119 0.361c-0.102 0.306-0.163 0.658-0.166 1.024v0.002c0.009 0.263 0.076 0.508 0.188 0.727l-0.004-0.010c0.145 0.256 0.316 0.477 0.515 0.669l0.001 0.001c0.159 0.153 0.294 0.331 0.398 0.528l0.005 0.011c0.079 0.17 0.125 0.369 0.125 0.579 0 0.005-0 0.009-0 0.014v-0.001 0.095s0-0.059 0 0v0 0.166c0.001 0.006 0.001 0.013 0.001 0.021s-0 0.015-0.001 0.022l0-0.001c-0.028 0.079-0.056 0.143-0.088 0.206l0.005-0.010c-0.082 0.137-0.18 0.255-0.295 0.354l-0.002 0.001c-0.258 0.209-0.556 0.382-0.878 0.508l-0.023 0.008h-0.047c0.467 0.549 0.864 1.178 1.166 1.859l0.019 0.049 0.053-0.041c0.471-0.376 0.865-0.823 1.173-1.329l0.013-0.022c0.178-0.307 0.303-0.668 0.354-1.052l0.002-0.015c0.011-0.089 0.018-0.192 0.018-0.296s-0.006-0.207-0.019-0.308l0.001 0.012z"></path>
<path fill="#414042" d="M11.129 13.227c-0.345-0.133-0.643-0.307-0.907-0.521l0.006 0.005c-0.117-0.1-0.216-0.218-0.293-0.349l-0.004-0.006c-0.028-0.053-0.056-0.118-0.080-0.185l-0.003-0.011c-0.001-0.006-0.001-0.013-0.001-0.021s0.001-0.014 0.001-0.022l-0 0.001v-0.166c0-0.030 0 0.041 0 0.030v0-0.13c0-0.002-0-0.005-0-0.008 0-0.212 0.046-0.413 0.128-0.593l-0.004 0.009c0.109-0.208 0.243-0.386 0.402-0.539l0.001-0.001c0.191-0.187 0.356-0.399 0.49-0.632l0.008-0.014c0.114-0.219 0.182-0.478 0.184-0.752v-0.001c-0.003-0.367-0.063-0.719-0.173-1.049l0.007 0.024c-0.071-0.231-0.119-0.361-0.119-0.361s0 0.136 0 0.379c0.002 0.043 0.003 0.094 0.003 0.145 0 0.294-0.040 0.579-0.115 0.849l0.005-0.022c-0.058 0.185-0.154 0.344-0.279 0.474l0-0c-0.153 0.139-0.326 0.259-0.514 0.355l-0.013 0.006c-0.284 0.149-0.528 0.329-0.741 0.54l0-0c-0.237 0.251-0.425 0.551-0.545 0.883l-0.006 0.018-0.041 0.119v0.13l-0.030 0.101c0 0.047 0 0.107 0 0.16-0.011 0.089-0.018 0.192-0.018 0.296s0.006 0.207 0.019 0.308l-0.001-0.012c0.052 0.399 0.178 0.759 0.363 1.081l-0.007-0.014c0.32 0.528 0.715 0.975 1.175 1.343l0.010 0.008 0.053 0.041c0.321-0.73 0.718-1.359 1.194-1.919l-0.009 0.011h-0.047z"></path>
<path fill="#414042" d="M18.542 18.88c-0.001 0-0.001 0-0.002 0-0.8 0-1.458-0.607-1.538-1.386l-0.001-0.007c1.125-0.043 2.185-0.152 3.224-0.322l-0.148 0.020c0 0.041 0 0.089 0 0.136 0 0.854-0.692 1.547-1.547 1.547v0zM17.89 21.156h-0.095l-0.367 1.244-0.361-1.244h-0.67l-0.367 1.244-0.367-1.244h-0.676l-0.361 1.244-0.367-1.244h-0.095c-0.142 0-0.258-0.115-0.258-0.258s0.115-0.258 0.258-0.258h3.733c0.142 0 0.258 0.115 0.258 0.258s-0.115 0.258-0.258 0.258v0zM11.97 17.321c0-0.047 0-0.089 0-0.136 0.895 0.146 1.956 0.248 3.034 0.283l0.042 0.001c-0.097 0.769-0.747 1.359-1.535 1.359-0.842 0-1.527-0.673-1.546-1.511l-0-0.002zM16.018 11.911c-3.247 0-5.879 1.701-5.879 5.404s2.631 6.702 5.879 6.702 5.908-2.981 5.908-6.684-2.631-5.404-5.879-5.404z"></path>
</svg>
<svg id="icon-MYSTERY" width="32" height="32" viewBox="0 0 32 32" x="48" y="48">
<path fill="#b91122" d="M0 0h32v32h-32v-32z"></path>
<path fill="#414042" d="M17.624 8.557c-3.109 0-5.63 2.52-5.63 5.63s2.52 5.63 5.63 5.63c3.109 0 5.63-2.52 5.63-5.63v0c0-3.109-2.52-5.63-5.63-5.63v0zM17.624 18.127c-2.176 0-3.941-1.764-3.941-3.941s1.764-3.941 3.941-3.941c2.176 0 3.941 1.764 3.941 3.941v0c0 2.176-1.764 3.941-3.941 3.941v0zM14.323 20.083l-2.904 2.904c-0.283 0.284-0.675 0.46-1.108 0.46-0.864 0-1.565-0.701-1.565-1.565 0-0.431 0.175-0.822 0.457-1.105l2.815-2.815c0.597 0.878 1.369 1.592 2.272 2.104l0.033 0.017zM19.526 15.686c-0.024 0.003-0.052 0.005-0.080 0.005s-0.056-0.002-0.083-0.005l0.003 0c-0.253-0.071-0.435-0.3-0.435-0.571 0-0.069 0.012-0.136 0.034-0.197l-0.001 0.004c0.072-0.207 0.113-0.445 0.113-0.693 0-0.608-0.25-1.158-0.652-1.553l-0-0c-0.135-0.111-0.22-0.278-0.22-0.465 0-0.332 0.27-0.602 0.602-0.602 0.146 0 0.279 0.052 0.383 0.138l-0.001-0.001c0.671 0.615 1.090 1.496 1.090 2.474 0 0.365-0.058 0.717-0.166 1.046l0.007-0.024c-0.068 0.258-0.299 0.445-0.574 0.445-0.007 0-0.013-0-0.020-0l0.001 0z"></path>
</svg>
<svg id="icon-NOIR" width="32" height="32" viewBox="0 0 32 32" x="96" y="48">
<path fill="#007f6d" d="M0 0h32v32h-32v-32z"></path>
<path fill="#414042" d="M16 14.726c3.046 0.071 4.498-0.646 4.93-1.15 0-2.015-1.665-4.889-2.756-4.889-0.871 0-1.233 0.717-2.175 0.717s-1.304-0.717-2.175-0.717c-1.090 0-2.756 2.88-2.756 4.889 0.433 0.504 1.884 1.15 4.93 1.15z"></path>
<path fill="#414042" d="M16.041 22.625c-0.314-0-0.618-0.039-0.909-0.112l0.026 0.005 2.418-4.741c1.087-0.063 2.102-0.211 3.086-0.439l-0.123 0.024c-0.101 2.927-2.080 5.274-4.498 5.274zM23.253 15.662c0-0.593-0.871-1.15-2.175-1.511v0.071c0 0.433-1.304 1.44-5.079 1.44s-5.079-1.007-5.079-1.44v-0.071c-1.304 0.361-2.175 0.936-2.175 1.511s0.8 1.138 2.098 1.523c0.030 3.39 2.37 6.127 5.197 6.127s5.185-2.75 5.197-6.127v0c1.244-0.385 2.015-0.907 2.015-1.499z"></path>
</svg>
<svg id="icon-PERIOD" width="32" height="32" viewBox="0 0 32 32" x="144" y="48">
<path fill="#86abbd" d="M0 0h32v32h-32v-32z"></path>
<path fill="#414042" d="M10.921 8.788h10.157c0.431 0.073 0.755 0.443 0.755 0.889s-0.324 0.816-0.75 0.888l-0.005 0.001h-0.030v0.901c0 0.008 0 0.018 0 0.028 0 1.909-1.18 3.542-2.85 4.21l-0.031 0.011c-0.095 0.034-0.162 0.121-0.166 0.225v0.066c0.004 0.104 0.071 0.191 0.164 0.225l0.002 0.001c0.87 0.343 1.585 0.921 2.088 1.656l0.010 0.015c0.49 0.714 0.782 1.598 0.782 2.549 0 0.008-0 0.016-0 0.024v-0.001 0.901h0.036c0.431 0.073 0.755 0.443 0.755 0.889s-0.324 0.816-0.75 0.888l-0.005 0.001h-10.163c-0.431-0.073-0.755-0.443-0.755-0.889s0.324-0.816 0.75-0.888l0.005-0.001h0.030v-0.871c-0-0.007-0-0.015-0-0.024 0-1.91 1.179-3.544 2.85-4.214l0.031-0.011c0.095-0.034 0.162-0.121 0.166-0.225v-0.066c-0.004-0.104-0.071-0.191-0.164-0.225l-0.002-0.001c-1.697-0.681-2.874-2.312-2.874-4.219 0-0.011 0-0.021 0-0.032v0.002-0.901h-0.036c-0.431-0.073-0.755-0.443-0.755-0.889s0.324-0.816 0.75-0.888l0.005-0.001zM12.148 11.514c0.002 0.709 0.223 1.366 0.6 1.907l-0.007-0.011c0.378 0.553 0.905 0.98 1.524 1.225l0.022 0.008c0.544 0.213 0.922 0.731 0.924 1.339v0.065c-0.002 0.608-0.381 1.127-0.915 1.336l-0.010 0.003c-1.262 0.497-2.139 1.704-2.139 3.117v0.901h7.704v-0.901c0-0.007 0-0.015 0-0.023 0-1.407-0.869-2.61-2.099-3.103l-0.023-0.008c-0.544-0.213-0.922-0.731-0.924-1.339v-0.065c0.002-0.608 0.381-1.127 0.915-1.336l0.010-0.003c1.253-0.501 2.122-1.705 2.122-3.111 0-0.008-0-0.017-0-0.025v0.001-0.901h-7.704zM18.625 13.037c0.024-0.040 0.038-0.088 0.038-0.139s-0.014-0.099-0.039-0.14l0.001 0.001c-0.046-0.085-0.134-0.142-0.236-0.142-0 0-0.001 0-0.001 0h-4.788c-0.002-0-0.005-0-0.008-0-0.147 0-0.267 0.119-0.267 0.267 0 0.058 0.018 0.111 0.050 0.155l-0.001-0.001c0.297 0.406 0.699 0.719 1.167 0.901l0.018 0.006c0.501 0.199 0.901 0.561 1.144 1.019l0.006 0.012c0.063 0.099 0.172 0.164 0.296 0.164s0.233-0.065 0.295-0.163l0.001-0.001c0.249-0.47 0.649-0.832 1.135-1.026l0.015-0.005c0.481-0.189 0.88-0.502 1.168-0.899l0.005-0.008zM15.253 18.477c-0.241 0.224-0.566 0.362-0.922 0.362-0.005 0-0.010-0-0.015-0h0.001c-0.648 0.001-1.191 0.445-1.343 1.045l-0.002 0.010v0.059c-0.028 0.122-0.048 0.265-0.053 0.41l-0 0.004c-0 0.004-0 0.008-0 0.012 0 0.165 0.132 0.299 0.296 0.302h5.588c0.001 0 0.001 0 0.002 0 0.086 0 0.163-0.036 0.217-0.095l0-0c0.052-0.054 0.083-0.127 0.083-0.208 0-0.004-0-0.008-0-0.012l0 0.001c-0.005-0.156-0.024-0.305-0.056-0.448l0.003 0.016v-0.065c-0.16-0.598-0.697-1.031-1.336-1.031-0.003 0-0.007 0-0.010 0h0c-0.005 0-0.010 0-0.016 0-0.355 0-0.678-0.135-0.922-0.357l0.001 0.001c-0.175-0.168-0.322-0.363-0.433-0.58l-0.006-0.012c-0.059-0.114-0.176-0.19-0.311-0.19-0.024 0-0.048 0.002-0.070 0.007l0.002-0c-0.109 0.023-0.199 0.093-0.248 0.188l-0.001 0.002c-0.123 0.218-0.273 0.404-0.448 0.561l-0.002 0.002z"></path>
</svg>
<svg id="icon-POLITICAL" width="32" height="32" viewBox="0 0 32 32" x="192" y="48">
<path fill="#00b79b" d="M0 0h32v32h-32v-32z"></path>
<path fill="#414042" d="M17.523 9.416c0 0.841-0.682 1.523-1.523 1.523s-1.523-0.682-1.523-1.523c0-0.841 0.682-1.523 1.523-1.523v0c0.838 0 1.517 0.679 1.517 1.517v0z"></path>
<path fill="#414042" d="M10.933 16v2.027h1.013v6.080h8.107v-6.080h1.013v-2.027zM17.523 20.053c-0.051 0.799-0.712 1.428-1.52 1.428s-1.469-0.629-1.52-1.424l-0-0.004v-1.517h3.040z"></path>
<path fill="#414042" d="M12.96 14.987v-1.013c0.029-0.257 0.245-0.455 0.507-0.455s0.478 0.198 0.506 0.452l0 0.002v1.013h4.053v-1.013c0 0 0-0 0-0 0-0.278 0.226-0.504 0.504-0.504 0.002 0 0.004 0 0.006 0h-0c1.119 0 2.027-0.907 2.027-2.027v-2.791c0-0.421-0.341-0.761-0.761-0.761s-0.761 0.341-0.761 0.761v0 2.281c0 0.56-0.454 1.013-1.013 1.013v0h-4.557c-1.119 0-2.027 0.907-2.027 2.027v0 1.013h1.517z"></path>
</svg>
<svg id="icon-ROMANCE" width="32" height="32" viewBox="0 0 32 32" x="240" y="48">
<path fill="#f7a399" d="M0 0h32v32h-32v-32z"></path>
<path fill="#414042" d="M18.068 11.099c-0.919 0.284-1.553 0.533-2.068 0.676-0.516-0.142-1.15-0.391-2.068-0.676-2.406-0.753-4.012 2.157-6.465 4.658 0 0 2.204 3.81 4.563 4.836 0.628 0.266 1.359 0.42 2.125 0.42 0.661 0 1.295-0.115 1.884-0.326l-0.039 0.012c0.55 0.198 1.184 0.313 1.845 0.313 0.767 0 1.497-0.154 2.163-0.433l-0.037 0.014c2.37-1.025 4.563-4.836 4.563-4.836-2.453-2.507-4.059-5.41-6.465-4.658zM16 16.593c-1.961 0-3.556-0.267-3.556-0.593s1.588-0.593 3.556-0.593 3.556 0.267 3.556 0.593-1.588 0.593-3.556 0.593z"></path>
</svg>
<svg id="icon-SATIRE" width="32" height="32" viewBox="0 0 32 32" x="288" y="48">
<path fill="#7d9886" d="M0 0h32v32h-32v-32z"></path>
<path fill="#414042" d="M20.32 16.593l-8.279 1.102c-0.216-0.008-0.389-0.185-0.389-0.403 0-0.199 0.144-0.364 0.333-0.397l0.002-0 8.225-1.114c0.015-0.002 0.032-0.003 0.050-0.003 0.2 0 0.366 0.151 0.388 0.345l0 0.002c0.003 0.017 0.004 0.037 0.004 0.057 0 0.2-0.148 0.365-0.34 0.393l-0.002 0zM13.304 12.581c0.005-0 0.012-0 0.018-0 0.553 0 1.001 0.448 1.001 1.001s-0.448 1.001-1.001 1.001c-0.553 0-1.001-0.448-1.001-1.001v0c-0-0.004-0-0.008-0-0.012 0-0.544 0.44-0.986 0.983-0.99h0zM18.56 12.581c0.005-0 0.012-0 0.018-0 0.553 0 1.001 0.448 1.001 1.001s-0.448 1.001-1.001 1.001c-0.553 0-1.001-0.448-1.001-1.001v0c-0-0.004-0-0.008-0-0.012 0-0.544 0.44-0.986 0.983-0.99h0zM21.25 10.21h-10.507c-0.87 0.013-1.571 0.722-1.571 1.594 0 0.017 0 0.033 0.001 0.050l-0-0.002v6.519c0 0.002 0 0.004 0 0.006 0 0.872 0.7 1.581 1.569 1.594h5.666l3.147 3.058v-3.105h1.713c0.87-0.013 1.57-0.722 1.57-1.594 0-0.002 0-0.004 0-0.006v0-6.471c0-0.002 0-0.004 0-0.006 0-0.872-0.7-1.581-1.569-1.594h-0.001z"></path>
</svg>
<svg id="icon-SCIFI" width="32" height="32" viewBox="0 0 32 32" x="336" y="48">
<path fill="#fff685" d="M0 0h32v32h-32v-32z"></path>
<path fill="#414042" d="M15.964 18.216c0.704 0 1.274-0.57 1.274-1.274s-0.57-1.274-1.274-1.274c-0.704 0-1.274 0.57-1.274 1.274v0c0 0.704 0.57 1.274 1.274 1.274v0z"></path>
<path fill="#414042" d="M18.21 21.961c-0.425 0-0.77-0.345-0.77-0.77s0.345-0.77 0.77-0.77c0.425 0 0.77 0.345 0.77 0.77v0c0 0.425-0.345 0.77-0.77 0.77v0zM15.964 21.961c-0.425 0-0.77-0.345-0.77-0.77s0.345-0.77 0.77-0.77c0.425 0 0.77 0.345 0.77 0.77v0c0 0.425-0.345 0.77-0.77 0.77v0zM13.719 21.961c-0.425 0-0.77-0.345-0.77-0.77s0.345-0.77 0.77-0.77c0.425 0 0.77 0.345 0.77 0.77v0c0 0.425-0.345 0.77-0.77 0.77v0zM15.964 14.305c1.453 0 2.631 1.178 2.631 2.631s-1.178 2.631-2.631 2.631c-1.453 0-2.631-1.178-2.631-2.631v0c0-1.453 1.178-2.631 2.631-2.631v0zM26.264 15.858c-0-0.5-0.179-0.957-0.477-1.313l0.003 0.003-0.741 0.741c0.109 0.16 0.175 0.358 0.175 0.571 0 0.563-0.456 1.019-1.019 1.019s-1.019-0.456-1.019-1.019c0-0.213 0.065-0.411 0.177-0.574l-0.002 0.004-0.741-0.741c-0.294 0.353-0.472 0.811-0.472 1.311 0 0.928 0.615 1.712 1.459 1.968l0.015 0.004-0.207 0.919c-0.070 0.304-0.338 0.527-0.658 0.527h-1.511v-2.37c-0.117-2.629-2.142-4.75-4.718-5.017l-0.023-0.002v-1.416c0.735-0.124 1.274-0.527 1.274-0.99 0-0.593-0.824-1.043-1.837-1.043s-1.837 0.468-1.837 1.043c0 0.474 0.563 0.877 1.327 1.001v1.416c-2.598 0.269-4.623 2.39-4.74 5.008l-0 0.011v2.37h-1.44c-0.32-0.001-0.588-0.224-0.657-0.523l-0.001-0.005-0.207-0.919c0.859-0.26 1.474-1.044 1.474-1.972 0-0.5-0.178-0.958-0.475-1.314l0.003 0.003-0.747 0.729c0.109 0.16 0.175 0.358 0.175 0.571 0 0.563-0.456 1.019-1.019 1.019s-1.019-0.456-1.019-1.019c0-0.213 0.065-0.411 0.177-0.574l-0.002 0.004-0.741-0.741c-0.294 0.353-0.473 0.812-0.473 1.312 0 0.976 0.68 1.793 1.591 2.003l0.014 0.003 0.255 1.096c0.176 0.759 0.847 1.316 1.647 1.316 0.002 0 0.004 0 0.007 0h1.416v1.594c0 0 0 0 0 0 0 1.149 0.931 2.080 2.080 2.080 0.002 0 0.004 0 0.006 0h6.406c1.149 0 2.080-0.931 2.080-2.080v0-1.576h1.505c0.002 0 0.005 0 0.008 0 0.807 0 1.481-0.566 1.649-1.322l0.002-0.011 0.255-1.114c0.925-0.213 1.604-1.028 1.606-2.003v-0z"></path>
</svg>
<svg id="icon-SUPERHERO" width="32" height="32" viewBox="0 0 32 32" x="384" y="48">
<path fill="#fff200" d="M0 0h32v32h-32v-32z"></path>
<path fill="#414042" d="M16.504 14.062c-0.023 0.045-0.051 0.084-0.083 0.119l0-0c-0.16 0.184-0.289 0.401-0.375 0.638l-0.004 0.014c0.234-0.082 0.43-0.168 0.618-0.267l-0.025 0.012c0-0.107-0.053-0.225-0.089-0.344l-0.047-0.178z"></path>
<path fill="#414042" d="M20.664 15.668c-0.121 0.419-0.24 0.959-0.331 1.509l-0.012 0.091c-0.059 0.421-0.077 0.8-0.089 1.12v0.059l-0.047 0.036c-0.148 0.084-0.326 0.133-0.515 0.133-0.074 0-0.146-0.008-0.215-0.022l0.007 0.001h-0.065v-0.059c-0.213-0.504-0.415-0.924-0.593-1.262l-0.065 0.142c-0.035 0.070-0.073 0.158-0.107 0.248l-0.006 0.019c-0.119 0.327-0.228 0.725-0.306 1.134l-0.008 0.051-0.059 0.219c-0.109 0.126-0.27 0.205-0.448 0.205-0.024 0-0.047-0.001-0.070-0.004l0.003 0h-0.373v-0.071c-0.093-0.242-0.169-0.527-0.216-0.822l-0.003-0.025c0-0.13-0.041-0.267-0.083-0.433s-0.071-0.32-0.101-0.474c-0.054-0.302-0.116-0.555-0.191-0.803l0.013 0.050c0-0.059 0-0.213 0.219-0.29s0.521-0.077 0.593 0.107v0.047c0.002 0.362 0.039 0.714 0.107 1.055l-0.006-0.035v-0.041l0.113-0.332 0.391-1.185v-0.036h0.030c0.117-0.077 0.261-0.123 0.416-0.123 0.116 0 0.225 0.026 0.324 0.072l-0.005-0.002h0.041v0.041c0.059 0.13 0.107 0.249 0.154 0.373s0.13 0.332 0.231 0.533l0.083 0.178 0.065 0.136c0-0.071 0.036-0.154 0.053-0.243s0.036-0.172 0.053-0.261c0.086-0.314 0.169-0.715 0.23-1.124l0.008-0.061v-0.041h0.036c0.101-0.060 0.223-0.095 0.353-0.095s0.252 0.035 0.356 0.097l-0.003-0.002c0.033 0.030 0.053 0.074 0.053 0.122 0 0.032-0.009 0.061-0.024 0.086l0-0.001zM16.723 18.489c-0.103 0.807-0.781 1.425-1.605 1.434h-0.001c-0.045 0.004-0.098 0.006-0.151 0.006s-0.106-0.002-0.158-0.006l0.007 0c-0.335-0.086-0.623-0.258-0.847-0.491l-0.001-0.001c-0.235-0.258-0.379-0.603-0.379-0.981 0-0.296 0.088-0.572 0.241-0.802l-0.003 0.005c0.302-0.576 0.896-0.961 1.579-0.961 0.138 0 0.271 0.016 0.4 0.045l-0.012-0.002c0.379 0 0.545 0.29 0.693 0.545 0.036 0.065 0.077 0.136 0.124 0.201 0.104 0.182 0.165 0.401 0.165 0.634 0 0.138-0.021 0.27-0.061 0.395l0.003-0.009zM13.387 18.501c-0.102 0.285-0.262 0.527-0.467 0.722l-0.001 0.001c-0.378 0.352-0.817 0.646-1.297 0.865l-0.031 0.012c-0.060 0.12-0.095 0.261-0.095 0.41 0 0.065 0.007 0.128 0.019 0.189l-0.001-0.006c0.009 0.030 0.014 0.065 0.014 0.101s-0.005 0.071-0.014 0.103l0.001-0.003c-0.071 0.056-0.163 0.090-0.261 0.090-0.008 0-0.016-0-0.024-0.001l0.001 0c-0.002 0-0.005 0-0.008 0-0.099 0-0.192-0.024-0.274-0.067l0.003 0.002c-0.092-0.042-0.155-0.133-0.155-0.238 0-0.006 0-0.012 0.001-0.017l-0 0.001c-0.001-0.025-0.002-0.055-0.002-0.084 0-0.18 0.022-0.356 0.064-0.523l-0.003 0.015c0-0.101 0.041-0.213 0.065-0.356 0.053-0.35 0.089-0.658 0.124-0.96s0.077-0.687 0.142-1.007v-0.065h0.065l0.356-0.142c0.36-0.188 0.786-0.298 1.238-0.298 0.029 0 0.058 0 0.087 0.001l-0.004-0 0.083 0.041c0.095 0.041 0.175 0.097 0.243 0.166l0 0c0.132 0.16 0.212 0.367 0.212 0.593 0 0.153-0.037 0.298-0.102 0.425l0.002-0.005zM11.33 16.8c0.022-0.276 0.075-0.532 0.155-0.776l-0.007 0.023c0.036-0.124 0.071-0.255 0.101-0.391 0.13-0.593 0.196-0.871 0.29-1.481 0-0.148 0.065-0.332 0.101-0.468v-0.089h0.030c0.122-0.074 0.269-0.118 0.427-0.118 0.078 0 0.153 0.011 0.225 0.031l-0.006-0.001c0.090 0.032 0.155 0.111 0.166 0.206l0 0.001c-0.007 0.136-0.028 0.263-0.062 0.386l0.003-0.012c-0.024 0.084-0.043 0.182-0.053 0.284l-0.001 0.007 0.089-0.071c0.107-0.070 0.2-0.142 0.286-0.221l-0.002 0.002c0.144-0.133 0.307-0.248 0.486-0.338l0.012-0.006c0.131-0.068 0.243-0.145 0.346-0.233l-0.002 0.002c0.122-0.11 0.265-0.198 0.423-0.258l0.009-0.003c0.154 0 0.213 0.124 0.267 0.225 0.059 0.049 0.125 0.092 0.195 0.128l0.006 0.003c0.038 0.059 0.061 0.131 0.061 0.208 0 0.116-0.051 0.219-0.131 0.29l-0 0h-0.030c-0.296 0.077-0.552 0.221-0.759 0.416l0.001-0.001c-0.13 0.111-0.273 0.22-0.422 0.321l-0.017 0.011-0.314 0.213h-0.036l0.184 0.113 0.219 0.13c0.084 0.053 0.183 0.107 0.286 0.153l0.016 0.007c0.257 0.085 0.464 0.26 0.59 0.486l0.003 0.005c0.047 0.213-0.196 0.456-0.379 0.539h-0.059l-0.053-0.036-0.29-0.207c-0.354-0.256-0.766-0.459-1.211-0.586l-0.028-0.007c-0.020 0.081-0.035 0.176-0.041 0.274l-0 0.005c-0.009 0.121-0.025 0.232-0.050 0.341l0.003-0.015c-0.019 0.075-0.034 0.164-0.041 0.255l-0 0.006c-0.009 0.134-0.035 0.26-0.074 0.378l0.003-0.011v0.053h-0.053c-0.108 0.045-0.234 0.073-0.366 0.077l-0.002 0c-0.008 0-0.018 0.001-0.027 0.001-0.153 0-0.29-0.069-0.381-0.178l-0.001-0.001v-0.036zM15.241 14.684c0.45-0.788 0.747-1.31 1.185-1.979l0.036-0.059h0.065c0.004-0 0.008-0 0.012-0 0.152 0 0.295 0.040 0.419 0.109l-0.004-0.002h0.047v0.047c0.041 0.172 0.101 0.409 0.172 0.729s0.184 0.782 0.314 1.321c0.037 0.132 0.075 0.24 0.12 0.345l-0.007-0.019c0.045 0.103 0.088 0.227 0.121 0.356l0.004 0.018c0.007 0.019 0.011 0.042 0.011 0.065 0 0.050-0.017 0.095-0.046 0.131l0-0c-0.117 0.117-0.278 0.189-0.457 0.189-0.029 0-0.058-0.002-0.086-0.006l0.003 0c-0.092-0.006-0.169-0.065-0.201-0.147l-0.001-0.002c-0.059-0.172-0.101-0.314-0.148-0.492-0.539 0.196-0.972 0.391-1.185 0.486l-0.077 0.036c-0.027 0.082-0.059 0.152-0.098 0.219l0.003-0.005c-0.038 0.064-0.072 0.139-0.098 0.216l-0.003 0.009c-0.047 0.092-0.141 0.154-0.249 0.154-0.004 0-0.008-0-0.012-0l0.001 0c-0.022 0.004-0.048 0.006-0.074 0.006s-0.052-0.002-0.077-0.006l0.003 0c-0.172-0.059-0.338-0.201-0.332-0.35-0-0.007-0.001-0.015-0.001-0.023 0-0.124 0.047-0.237 0.125-0.321l-0 0c0.039-0.051 0.073-0.11 0.099-0.173l0.002-0.005c0.125-0.278 0.256-0.513 0.403-0.736l-0.012 0.019zM17.778 14.009v-0.041h0.036c0.2-0.114 0.435-0.193 0.684-0.224l0.009-0.001 0.261-0.053 0.243-0.071c0.314-0.095 0.593-0.184 0.723-0.041v0 0.053c0.010 0.050 0.025 0.093 0.043 0.134l-0.002-0.004c0.034 0.061 0.054 0.134 0.054 0.211 0 0.005-0 0.010-0 0.014l0-0.001c0 0.19-0.284 0.255-0.557 0.332l-0.201 0.059c-0.166 0.051-0.367 0.094-0.572 0.122l-0.020 0.002c-0.16 0-0.326 0.059-0.456 0.089h-0.077l-0.047-0.059c-0.116-0.102-0.189-0.25-0.189-0.416 0-0.040 0.004-0.078 0.012-0.115l-0.001 0.004zM25.914 17.991l-3.793-2.329 2.649-3.153-4.622 0.142-0.996-3.846-2.963 2.702-2.056-2.833-1.393 3.058-4.847-1.464 1.879 3.953-2.88 0.913 2.412 1.956-3.876 2.963 4.296 0.047-0.729 2.963 4.385-1.843 2.37 3.111 2.56-2.88 4.847 0.96-1.090-3.449z"></path>
<path fill="#414042" d="M11.68 19.117c0.134-0.045 0.247-0.095 0.355-0.154l-0.011 0.006c0.474-0.361 0.593-0.593 0.628-0.871-0.294 0.008-0.569 0.086-0.809 0.218l0.009-0.005c-0.101 0.226-0.16 0.49-0.16 0.768 0 0.011 0 0.023 0 0.034l-0-0.002z"></path>
<path fill="#414042" d="M14.993 17.641v0c-0.332 0.267-0.741 0.593-0.622 1.055 0.047 0.172 0.201 0.273 0.444 0.373 0.35 0.148 0.593-0.030 0.877-0.35 0.197-0.181 0.321-0.439 0.321-0.727 0-0.154-0.035-0.299-0.098-0.429l0.003 0.006c-0.117-0.051-0.254-0.080-0.397-0.080-0.19 0-0.368 0.052-0.521 0.142l0.005-0.003z"></path>
</svg>
<svg id="icon-SUPERNATURAL" width="32" height="32" viewBox="0 0 32 32" x="432" y="48">
<path fill="#b2dbb5" d="M0 0h32v32h-32v-32z"></path>
<path fill="#414042" d="M16 9.879c-0.002 0-0.004 0-0.006 0-3.056 0-5.534 2.474-5.541 5.528v6.703c0.474 0.148 0.96-1.185 1.464-1.185s0.841 1.185 1.327 1.185 0.96-1.185 1.446-1.185 0.841 1.185 1.327 1.185 0.96-1.185 1.446-1.185 0.824 1.185 1.327 1.185 0.948-1.185 1.434-1.185 0.841 1.298 1.316 1.185v-6.702c-0.020-3.050-2.49-5.516-5.539-5.529h-0.001zM13.73 17.114c-0.857 0-1.553-0.695-1.553-1.553s0.695-1.553 1.553-1.553c0.857 0 1.553 0.695 1.553 1.553v0c0 0.002 0 0.004 0 0.006 0 0.854-0.692 1.547-1.547 1.547-0.002 0-0.004 0-0.006 0h0zM18.311 17.114c-0.857 0-1.553-0.695-1.553-1.553s0.695-1.553 1.553-1.553c0.857 0 1.553 0.695 1.553 1.553v0c0 0.857-0.695 1.553-1.553 1.553v0z"></path>
</svg>
<svg id="icon-THRILLER" width="32" height="32" viewBox="0 0 32 32" x="480" y="48">
<path fill="#cf128c" d="M0 0h32v32h-32v-32z"></path>
<path fill="#414042" d="M11.686 15.241c0.201 0.344 0.279 0.753 0.474 1.114 0.226 0.375 0.458 0.698 0.714 1.001l-0.009-0.011c0.064 0.089 0.134 0.167 0.212 0.236l0.001 0.001c0.1 0.036 0.186 0.078 0.267 0.128l-0.006-0.003c0.047 0.047 0 0.142 0 0.142l-0.095 0.344c-0.141 0.004-0.265 0.078-0.337 0.188l-0.001 0.002c-0.1 0.148-0.179 0.32-0.228 0.504l-0.003 0.012-0.107 0.249c-0.047 0.095-0.124 0.172-0.172 0.249-0.022 0.053-0.035 0.114-0.035 0.178 0 0.025 0.002 0.049 0.006 0.073l-0-0.003-0.32 0.314c-1.073 1.084-2.204 2.37-2.655 3.733h13.191c-0.368-0.775-0.968-1.39-1.709-1.768l-0.021-0.010c-0.29-0.201-0.593-0.373-0.871-0.593-0.263-0.242-0.504-0.497-0.724-0.769l-0.010-0.013s-0.338-0.249-0.32-0.421 0.279-0.284 0.279-0.284c0.176-0.132 0.328-0.283 0.458-0.451l0.004-0.005c0.077-0.16 0.794-1.256 0.83-1.304s0.124-0.107 0.172-0.142 0.687-0.593 0.735-1.019c0.006-0.034 0.010-0.074 0.010-0.114 0-0.206-0.093-0.391-0.24-0.514l-0.001-0.001s0.397-0.219 0.397-0.533c0-0.003 0-0.007 0-0.011 0-0.178-0.123-0.327-0.288-0.368l-0.003-0.001s0.136-0.047 0.154-0.296c0-0.007 0.001-0.016 0.001-0.025 0-0.146-0.072-0.275-0.183-0.353l-0.001-0.001c-0.002-0.080-0.019-0.155-0.049-0.223l0.001 0.004c-0.047-0.095-0.231-0.391-0.231-0.391-0.009-0.013-0.014-0.030-0.014-0.047s0.005-0.034 0.014-0.048l-0 0c0.030-0.047 0.29-0.113 0.356-0.16 0.149-0.107 0.261-0.257 0.318-0.432l0.002-0.006c0.008-0.028 0.012-0.059 0.012-0.092 0-0.099-0.041-0.188-0.107-0.252l-0-0c-0.047-0.047-0.551-0.468-0.593-0.486l-0.427-0.249c-0.231-0.12-0.427-0.272-0.591-0.454l-0.002-0.002c-0.053-0.12-0.087-0.26-0.095-0.406l-0-0.003c-0.042-0.229-0.14-0.43-0.28-0.594l0.002 0.002c-0.106-0.172-0.224-0.322-0.356-0.457l0 0c-0.232-0.236-0.488-0.447-0.765-0.629l-0.018-0.011c-0.234-0.135-0.512-0.266-0.799-0.377l-0.042-0.014c-0.095-0.030-0.705-0.172-0.705-0.172s-0.059-0.077-0.095-0.077c-0.089-0.069-0.19-0.127-0.3-0.169l-0.008-0.003c-0.202-0.069-0.434-0.108-0.675-0.108-0.181 0-0.357 0.022-0.525 0.064l0.015-0.003c-0.371 0.104-0.692 0.231-0.995 0.387l0.029-0.014c-0.201 0.077-0.397 0.16-0.593 0.249l-1.292 0.551c-0.731 0.402-1.258 1.099-1.425 1.926l-0.003 0.018c-0.067 0.279-0.105 0.599-0.105 0.928 0 0.642 0.146 1.25 0.406 1.793l-0.011-0.025c0.129 0.155 0.254 0.327 0.368 0.507l0.012 0.020z"></path>
</svg>
<svg id="icon-TIMETRAVEL" width="32" height="32" viewBox="0 0 32 32" x="528" y="48">
<path fill="#9adbf9" d="M0 0h32v32h-32v-32z"></path>
<path fill="#414042" d="M16.717 18.465l3.247-3.188c0.14-0.135 0.227-0.324 0.227-0.533s-0.087-0.398-0.226-0.533l-0-0c-0.142-0.137-0.335-0.222-0.548-0.222s-0.407 0.085-0.548 0.222l0-0-2.702 2.655-1.778-1.73c-0.142-0.137-0.335-0.222-0.548-0.222s-0.406 0.085-0.548 0.222l0-0c-0.14 0.135-0.227 0.324-0.227 0.533s0.087 0.398 0.226 0.533l0 0 2.323 2.264c0.14 0.136 0.332 0.219 0.543 0.219 0.001 0 0.001 0 0.002 0h-0c0.005 0 0.011 0 0.016 0 0.21 0 0.401-0.084 0.541-0.22l-0 0z"></path>
<path fill="#414042" d="M16.35 10.187c-0.046-0.001-0.1-0.002-0.155-0.002-3.856 0-6.989 3.094-7.051 6.935l-0 0.006c-0.001 0.036-0.001 0.079-0.001 0.121 0 1.477 0.512 2.834 1.368 3.903l-0.010-0.012h-1.268c-0.427 0.037-0.76 0.393-0.76 0.827s0.333 0.789 0.756 0.826l0.003 0h4.041v-4.053c0.002-0.020 0.003-0.044 0.003-0.067 0-0.422-0.342-0.764-0.764-0.764s-0.764 0.342-0.764 0.764c0 0.024 0.001 0.047 0.003 0.070l-0-0.003v1.523c-0.847-0.883-0.919-1.932-0.919-3.046-0.001-0.044-0.002-0.096-0.002-0.148 0-3.027 2.454-5.481 5.481-5.481s5.481 2.454 5.481 5.481c0 3.018-2.439 5.467-5.454 5.481h-0.001c-0.471 0-0.853 0.382-0.853 0.853s0.382 0.853 0.853 0.853v0c0.030 0 0.066 0.001 0.101 0.001 3.903 0 7.071-3.144 7.111-7.037l0-0.004c-0.047-3.892-3.212-7.029-7.111-7.029-0.031 0-0.063 0-0.094 0.001l0.005-0z"></path>
<path fill="#414042" d="M15.206 9.576h2.281c0.022 0.002 0.048 0.003 0.073 0.003 0.504 0 0.913-0.409 0.913-0.913s-0.409-0.913-0.913-0.913c-0.026 0-0.051 0.001-0.077 0.003l0.003-0h-2.281c-0.022-0.002-0.048-0.003-0.073-0.003-0.504 0-0.913 0.409-0.913 0.913s0.409 0.913 0.913 0.913c0.026 0 0.051-0.001 0.077-0.003l-0.003 0z"></path>
</svg>
<svg id="icon-WESTERN" width="32" height="32" viewBox="0 0 32 32" x="576" y="48">
<path fill="#a15122" d="M0 0h32v32h-32v-32z"></path>
<path fill="#414042" d="M24.296 18.625l-1.090 0.207-0.415-1.001-0.415 1.001-1.090-0.13 0.421 0.593h-0.699v-8.036c-0.021-0.63-0.282-1.196-0.694-1.612l0 0c-0.624-0.553-1.449-0.891-2.354-0.891-0.083 0-0.165 0.003-0.247 0.008l0.011-0.001c-0.026 0.003-0.056 0.004-0.086 0.004s-0.060-0.001-0.090-0.004l0.004 0c-1.6 0-3.33 0.664-3.33 2.495v6.726c0.002 0.039 0.004 0.084 0.004 0.129 0 0.604-0.226 1.156-0.598 1.574l0.002-0.002c-0.622 0.574-1.456 0.927-2.373 0.927-0.084 0-0.168-0.003-0.251-0.009l0.011 0.001h-2.276c-0.741 0-0.942 0.231-1.001 0.403s-0.077 0.397 0.367 0.693c0.927 0.45 2.032 0.874 3.177 1.206l0.154 0.038c0.52 0.197 1.121 0.311 1.749 0.311 0.064 0 0.128-0.001 0.192-0.004l-0.009 0c0.629-0.012 1.226-0.135 1.777-0.35l-0.035 0.012c0.96-0.373 1.576-0.521 1.742-0.593v0.836h0.427c0.126 0.008 0.273 0.013 0.422 0.013 0.834 0 1.634-0.143 2.378-0.407l-0.050 0.015 0.047-0.041 0.036-0.047c0.42-0.412 0.726-0.94 0.867-1.531l0.004-0.022v-1.333h0.824l-0.533 0.593 1.090-0.249 0.415 0.984 0.415-1.007 1.090 0.207-0.67-0.865z"></path>
</svg>
<svg id="icon-YA" width="32" height="32" viewBox="0 0 32 32" x="624" y="48">
<path fill="#ef60a3" d="M0 0h32v32h-32v-32z"></path>
<path fill="#414042" d="M25.79 13.926c-0.111 0-0.201-0.090-0.201-0.201s0.090-0.201 0.201-0.201c0.111 0 0.201 0.090 0.201 0.201v0c-0.003 0.11-0.092 0.198-0.201 0.201h-0zM25.79 14.471c-0.111 0-0.201-0.090-0.201-0.201s0.090-0.201 0.201-0.201c0.111 0 0.201 0.090 0.201 0.201v0c0 0.111-0.090 0.201-0.201 0.201v0zM6.234 14.471c-0.111-0-0.201-0.090-0.201-0.201s0.090-0.201 0.201-0.201c0.109 0 0.198 0.087 0.201 0.195v0c0 0.002 0 0.004 0 0.006 0 0.111-0.090 0.201-0.201 0.201-0 0-0 0-0 0v0zM6.027 13.724c0-0.111 0.090-0.201 0.201-0.201s0.201 0.090 0.201 0.201c0 0.111-0.090 0.201-0.201 0.201v0c-0.111 0-0.201-0.090-0.201-0.201v0zM26.738 13.179c-7.046-1.624-8.8 0-8.8 0-0.157 0.104-0.287 0.235-0.388 0.386l-0.003 0.005c-0.416-0.083-0.893-0.131-1.382-0.131-0.035 0-0.070 0-0.105 0.001l0.005-0c-0.035-0.001-0.075-0.001-0.116-0.001-0.508 0-1.001 0.061-1.473 0.176l0.042-0.009c-0.109-0.171-0.247-0.314-0.41-0.423l-0.005-0.003s-1.778-1.636-8.8 0l0.030 1.57c0.556 0.143 0.963 0.632 0.978 1.219l0 0.002 0.047 0.29c0.124 0.735 0.622 2.921 2.258 3.159 0.486 0.081 1.047 0.127 1.618 0.127 0.852 0 1.679-0.102 2.471-0.295l-0.071 0.015s1.879-0.356 2.181-3.384c0.027-0.195 0.042-0.421 0.042-0.65 0-0.015-0-0.030-0-0.046l0 0.002c0.276-0.304 0.673-0.493 1.114-0.493 0.025 0 0.050 0.001 0.074 0.002l-0.003-0c0.012-0 0.026-0.001 0.041-0.001 0.387 0 0.744 0.129 1.030 0.347l-0.004-0.003c0.001 0.298 0.029 0.589 0.082 0.871l-0.005-0.030c0.302 3.028 2.181 3.384 2.181 3.384 0.721 0.178 1.549 0.28 2.4 0.28 0.571 0 1.131-0.046 1.677-0.134l-0.060 0.008c1.636-0.237 2.133-2.424 2.258-3.159-0.036 0.231-0.059 0.444 0.047-0.29 0.015-0.589 0.422-1.078 0.969-1.219l0.009-0.002z"></path>
</svg>
<svg id="icon-ZOMBIE" width="32" height="32" viewBox="0 0 32 32" x="672" y="48">
<path fill="#929f3d" d="M0 0h32v32h-32v-32z"></path>
<path fill="#414042" d="M21.084 12.29c-0.109-0.12-0.266-0.196-0.44-0.196-0.002 0-0.003 0-0.005 0h0c-0.664 0-0.818 0.836-0.824 0.871l-0.178 1.375-0.433 0.847 0.468-2.151c0.005-0.013 0.009-0.028 0.009-0.044s-0.003-0.031-0.009-0.045l0 0.001-0.19-1.612c0-0.041-0.148-0.812-0.77-0.812h-0.142c-0.593 0.107-0.687 0.77-0.664 1.108l0.172 1.493-0.439 1.861-0.036 0.083 0.053-0.45c0.001-0.006 0.002-0.013 0.002-0.021s-0.001-0.014-0.002-0.021l0 0.001-0.13-2.726c-0.003-0.033-0.018-0.062-0.041-0.083l-0-0-0.699-1.932c0-0.041-0.356-0.841-0.966-0.841-0.085 0.001-0.167 0.016-0.242 0.043l0.005-0.002c-0.759 0.267-0.409 1.369-0.391 1.416l0.646 1.778 0.083 2.299-0.676-2.305c-0.010-0.031-0.031-0.056-0.059-0.071l-0.001-0-1.067-1.487c-0.219-0.274-0.538-0.46-0.9-0.503l-0.006-0.001c-0.152 0.002-0.294 0.048-0.412 0.126l0.003-0.002c-0.156 0.092-0.269 0.243-0.307 0.422l-0.001 0.004c-0.004 0.039-0.006 0.083-0.006 0.129 0 0.288 0.089 0.556 0.24 0.777l-0.003-0.005 0.984 1.351 0.557 1.95 0.124 1.185c0 0.344 0 1.185-0.456 1.44-0.341 0.203-0.736 0.369-1.153 0.479l-0.032 0.007-0.356-0.249-0.119-0.824c0-0.053-0.243-1.108-1.031-1.108h-0.047c-0.118 0.005-0.221 0.062-0.29 0.147l-0.001 0.001c-0.279 0.332-0.172 1.144-0.16 1.233l0.237 1.6c-0 0.001-0 0.003-0 0.005 0 0.036 0.016 0.068 0.041 0.090l0 0 2.163 1.742c0.217 0.476 0.344 1.032 0.344 1.617 0 0.023-0 0.046-0.001 0.069l0-0.003c0 0.664 1.25 0.901 2.406 0.901 1.055 0 2.37-0.207 2.761-0.658 0.076-0.080 0.122-0.189 0.122-0.309 0-0.021-0.001-0.041-0.004-0.061l0 0.002c0.031-0.704 0.155-1.369 0.359-1.997l-0.015 0.053c0.3-0.956 0.489-2.059 0.521-3.2l0-0.017 0.433-0.593v-0.036l0.954-1.873c0.006-0.013 0.009-0.028 0.009-0.044s-0.003-0.031-0.009-0.045l0 0.001 0.196-1.476c0.004-0.033 0.006-0.072 0.006-0.111 0-0.223-0.071-0.429-0.192-0.597l0.002 0.003z"></path>
</svg>
</svg>
