<svg xmlns="http://www.w3.org/2000/svg" viewBox="0 0 54 54"><defs><style>.cls-1{isolation:isolate;}.cls-2{fill:#929f3d;}.cls-3{mix-blend-mode:multiply;}.cls-4{fill:#414042;}</style></defs><title>IDWE-Category</title><g class="cls-1"><g id="Layer_1" data-name="Layer 1"><rect class="cls-2" width="54" height="54"/><g class="cls-3"><path class="cls-4" d="M35.58,20.74a1,1,0,0,0-.75-.33h0c-1.12,0-1.38,1.41-1.39,1.47l-.3,2.32-.73,1.43L33.2,22a.2.2,0,0,0,0-.15l-.32-2.72c0-.07-.25-1.37-1.3-1.37l-.24,0c-1,.18-1.16,1.3-1.12,1.87l.29,2.52-.74,3.14-.06.14.09-.76a.19.19,0,0,0,0-.07L29.58,20a.21.21,0,0,0-.07-.14l-1.18-3.26c0-.07-.6-1.42-1.63-1.42a1.24,1.24,0,0,0-.4.07c-1.28.45-.69,2.31-.66,2.39l1.09,3,.14,3.88h0l-1.14-3.89a.2.2,0,0,0-.1-.12L23.83,18a2.29,2.29,0,0,0-1.53-.85,1.29,1.29,0,0,0-.69.21,1.09,1.09,0,0,0-.52.72,2.32,2.32,0,0,0,.39,1.52l1.66,2.28.94,3.29.21,2c0,.58,0,2-.77,2.43a7.79,7.79,0,0,1-2,.82L20.92,30l-.2-1.39c0-.09-.41-1.87-1.74-1.87H18.9a.66.66,0,0,0-.49.25c-.47.56-.29,1.93-.27,2.08l.4,2.7a.07.07,0,0,0,0,0,.2.2,0,0,0,.07.16l3.65,2.94a6.7,6.7,0,0,1,.58,2.84c0,1.12,2.11,1.52,4.06,1.52,1.78,0,4-.35,4.66-1.11a.76.76,0,0,0,.2-.62,12.66,12.66,0,0,1,.58-3.28,20.73,20.73,0,0,0,.88-5.43l.73-1,0-.06,1.61-3.16a.19.19,0,0,0,0-.15l.33-2.49A1.73,1.73,0,0,0,35.58,20.74Z"/></g></g></g></svg>